<svg width="220" height="194" viewBox="0 0 220 194" fill="none" xmlns="http://www.w3.org/2000/svg">
<mask id="mask0_153_367" style="mask-type:alpha" maskUnits="userSpaceOnUse" x="0" y="129" width="220" height="65">
<rect x="1.5" y="130.5" width="217" height="62" rx="1.5" fill="#C4C4C4" stroke="white" stroke-width="3"/>
</mask>
<g mask="url(#mask0_153_367)">
<rect x="1.5" y="130.5" width="217" height="62" rx="1.5" stroke="white" stroke-width="3"/>
<mask id="path-3-inside-1_153_367" fill="white">
<path d="M0 135C0 133.343 1.34315 132 3 132H22V194H3C1.34315 194 0 192.657 0 191V135Z"/>
</mask>
<path d="M0 135C0 133.343 1.34315 132 3 132H22V194H3C1.34315 194 0 192.657 0 191V135Z" stroke="white" stroke-width="8" mask="url(#path-3-inside-1_153_367)"/>
<rect x="13" y="129" width="14" height="39" rx="3" fill="white"/>
<rect x="139" y="129" width="14" height="39" rx="3" fill="white"/>
<rect x="67" y="129" width="14" height="39" rx="3" fill="white"/>
<rect x="193" y="129" width="14" height="39" rx="3" fill="white"/>
<rect x="31" y="129" width="14" height="39" rx="3" fill="white"/>
<rect x="157" y="129" width="14" height="39" rx="3" fill="white"/>
<rect x="85" y="129" width="14" height="39" rx="3" fill="white"/>
<rect x="103" y="129" width="14" height="39" rx="3" fill="white"/>
<rect x="20" y="134" width="18" height="58" stroke="white" stroke-width="4"/>
<rect x="38" y="134" width="18" height="58" stroke="white" stroke-width="4"/>
<rect x="56" y="134" width="18" height="58" stroke="white" stroke-width="4"/>
<rect x="74" y="134" width="18" height="58" stroke="white" stroke-width="4"/>
<rect x="92" y="134" width="18" height="58" stroke="white" stroke-width="4"/>
<rect x="110" y="134" width="18" height="58" stroke="white" stroke-width="4"/>
<rect x="128" y="134" width="18" height="58" stroke="white" stroke-width="4"/>
<rect x="146" y="134" width="18" height="58" stroke="white" stroke-width="4"/>
<rect x="164" y="134" width="18" height="58" stroke="white" stroke-width="4"/>
<rect x="182" y="134" width="18" height="58" stroke="white" stroke-width="4"/>
<mask id="path-22-inside-2_153_367" fill="white">
<path d="M198 132H217C218.657 132 220 133.343 220 135V191C220 192.657 218.657 194 217 194H198V132Z"/>
</mask>
<path d="M198 132H217C218.657 132 220 133.343 220 135V191C220 192.657 218.657 194 217 194H198V132Z" stroke="white" stroke-width="8" mask="url(#path-22-inside-2_153_367)"/>
</g>
<mask id="path-23-inside-3_153_367" fill="white">
<rect x="19" y="28" width="15" height="15" rx="2"/>
</mask>
<rect x="19" y="28" width="15" height="15" rx="2" stroke="white" stroke-width="8" mask="url(#path-23-inside-3_153_367)"/>
<mask id="path-24-inside-4_153_367" fill="white">
<rect x="19" y="50" width="15" height="15" rx="2"/>
</mask>
<rect x="19" y="50" width="15" height="15" rx="2" stroke="white" stroke-width="8" mask="url(#path-24-inside-4_153_367)"/>
<mask id="path-25-inside-5_153_367" fill="white">
<rect x="19" y="72" width="15" height="15" rx="2"/>
</mask>
<rect x="19" y="72" width="15" height="15" rx="2" stroke="white" stroke-width="8" mask="url(#path-25-inside-5_153_367)"/>
<mask id="path-26-inside-6_153_367" fill="white">
<rect x="45" y="28" width="15" height="15" rx="2"/>
</mask>
<rect x="45" y="28" width="15" height="15" rx="2" stroke="white" stroke-width="8" mask="url(#path-26-inside-6_153_367)"/>
<mask id="path-27-inside-7_153_367" fill="white">
<rect x="45" y="50" width="15" height="15" rx="2"/>
</mask>
<rect x="45" y="50" width="15" height="15" rx="2" stroke="white" stroke-width="8" mask="url(#path-27-inside-7_153_367)"/>
<mask id="path-28-inside-8_153_367" fill="white">
<rect x="45" y="72" width="67" height="15" rx="2"/>
</mask>
<rect x="45" y="72" width="67" height="15" rx="2" stroke="white" stroke-width="8" mask="url(#path-28-inside-8_153_367)"/>
<mask id="path-29-inside-9_153_367" fill="white">
<rect x="71" y="28" width="15" height="15" rx="2"/>
</mask>
<rect x="71" y="28" width="15" height="15" rx="2" stroke="white" stroke-width="8" mask="url(#path-29-inside-9_153_367)"/>
<mask id="path-30-inside-10_153_367" fill="white">
<rect x="71" y="50" width="15" height="15" rx="2"/>
</mask>
<rect x="71" y="50" width="15" height="15" rx="2" stroke="white" stroke-width="8" mask="url(#path-30-inside-10_153_367)"/>
<mask id="path-31-inside-11_153_367" fill="white">
<rect x="97" y="28" width="15" height="15" rx="2"/>
</mask>
<rect x="97" y="28" width="15" height="15" rx="2" stroke="white" stroke-width="8" mask="url(#path-31-inside-11_153_367)"/>
<mask id="path-32-inside-12_153_367" fill="white">
<rect x="97" y="50" width="15" height="15" rx="2"/>
</mask>
<rect x="97" y="50" width="15" height="15" rx="2" stroke="white" stroke-width="8" mask="url(#path-32-inside-12_153_367)"/>
<mask id="path-33-inside-13_153_367" fill="white">
<rect x="123" y="28" width="15" height="15" rx="2"/>
</mask>
<rect x="123" y="28" width="15" height="15" rx="2" stroke="white" stroke-width="8" mask="url(#path-33-inside-13_153_367)"/>
<mask id="path-34-inside-14_153_367" fill="white">
<rect x="123" y="50" width="15" height="15" rx="2"/>
</mask>
<rect x="123" y="50" width="15" height="15" rx="2" stroke="white" stroke-width="8" mask="url(#path-34-inside-14_153_367)"/>
<mask id="path-35-inside-15_153_367" fill="white">
<rect x="123" y="72" width="15" height="15" rx="2"/>
</mask>
<rect x="123" y="72" width="15" height="15" rx="2" stroke="white" stroke-width="8" mask="url(#path-35-inside-15_153_367)"/>
<mask id="path-36-inside-16_153_367" fill="white">
<rect x="160" y="28" width="15" height="15" rx="2"/>
</mask>
<rect x="160" y="28" width="15" height="15" rx="2" stroke="white" stroke-width="8" mask="url(#path-36-inside-16_153_367)"/>
<mask id="path-37-inside-17_153_367" fill="white">
<rect x="160" y="50" width="15" height="15" rx="2"/>
</mask>
<rect x="160" y="50" width="15" height="15" rx="2" stroke="white" stroke-width="8" mask="url(#path-37-inside-17_153_367)"/>
<mask id="path-38-inside-18_153_367" fill="white">
<rect x="160" y="72" width="15" height="15" rx="2"/>
</mask>
<rect x="160" y="72" width="15" height="15" rx="2" stroke="white" stroke-width="8" mask="url(#path-38-inside-18_153_367)"/>
<mask id="path-39-inside-19_153_367" fill="white">
<rect x="186" y="28" width="15" height="15" rx="2"/>
</mask>
<rect x="186" y="28" width="15" height="15" rx="2" stroke="white" stroke-width="8" mask="url(#path-39-inside-19_153_367)"/>
<mask id="path-40-inside-20_153_367" fill="white">
<rect x="186" y="50" width="15" height="15" rx="2"/>
</mask>
<rect x="186" y="50" width="15" height="15" rx="2" stroke="white" stroke-width="8" mask="url(#path-40-inside-20_153_367)"/>
<mask id="path-41-inside-21_153_367" fill="white">
<rect x="186" y="72" width="15" height="15" rx="2"/>
</mask>
<rect x="186" y="72" width="15" height="15" rx="2" stroke="white" stroke-width="8" mask="url(#path-41-inside-21_153_367)"/>
<rect x="2" y="20" width="216" height="75" rx="8" stroke="white" stroke-width="4"/>
<rect x="2" y="2" width="216" height="8" rx="3" fill="white" stroke="white" stroke-width="4"/>
<path d="M93.1807 117.205C103.026 106.265 116.154 106.265 126 117.205" stroke="white" stroke-width="4" stroke-linecap="round" stroke-linejoin="round"/>
<path d="M99.7441 121.757C105.652 115.193 113.528 115.193 119.436 121.757" stroke="white" stroke-width="4" stroke-linecap="round" stroke-linejoin="round"/>
</svg>
