<svg id="vertical" xmlns="http://www.w3.org/2000/svg" viewBox="0 0 611.2 618"><defs><style>.cls-1,.cls-18,.cls-3,.cls-4,.cls-6,.cls-7{fill:#fff;}.cls-10,.cls-11,.cls-12,.cls-13,.cls-14,.cls-15,.cls-16,.cls-17,.cls-2,.cls-5,.cls-8,.cls-9{fill:none;}.cls-10,.cls-11,.cls-12,.cls-13,.cls-14,.cls-15,.cls-16,.cls-17,.cls-2,.cls-3,.cls-4,.cls-5,.cls-6,.cls-8,.cls-9{stroke:#fff;}.cls-2,.cls-3,.cls-4,.cls-6{stroke-miterlimit:10;}.cls-2,.cls-4,.cls-5{stroke-width:9px;}.cls-3{stroke-width:7px;}.cls-10,.cls-11,.cls-12,.cls-13,.cls-14,.cls-15,.cls-16,.cls-17,.cls-5,.cls-6,.cls-8,.cls-9{stroke-linecap:round;}.cls-10,.cls-11,.cls-12,.cls-13,.cls-14,.cls-15,.cls-16,.cls-17,.cls-5,.cls-8,.cls-9{stroke-linejoin:round;}.cls-6{stroke-width:6px;}.cls-7{font-size:28.06px;font-family:Exo-Black, Exo;font-weight:800;}.cls-10,.cls-11,.cls-12,.cls-13,.cls-14,.cls-15,.cls-16,.cls-17,.cls-8,.cls-9{stroke-width:7.2px;}.cls-9{stroke-dasharray:5.88 11.76;}.cls-10{stroke-dasharray:7.2 10.8;}.cls-11{stroke-dasharray:7.96 11.94;}.cls-12{stroke-dasharray:6.05 15.13;}.cls-13{stroke-dasharray:12.24 12.24;}.cls-14{stroke-dasharray:6.08 12.15;}.cls-15{stroke-dasharray:6.68 10.02;}.cls-16{stroke-dasharray:5.06 12.65;}.cls-17{stroke-dasharray:12.55 12.55;}.cls-18{font-size:52.44px;font-family:ClementePDaq-UltraBold, ClementePDaq;font-weight:700;}</style></defs><path class="cls-1" d="M557.3,112.5a3.4,3.4,0,0,1,3.4,3.4V372.1a3.4,3.4,0,0,1-3.4,3.4H191.1a3.4,3.4,0,0,1-3.4-3.4V115.9a3.4,3.4,0,0,1,3.4-3.4H557.3m0-9H191.1a12.4,12.4,0,0,0-12.4,12.4V372.1a12.4,12.4,0,0,0,12.4,12.4H557.3a12.5,12.5,0,0,0,12.4-12.4V115.9a12.5,12.5,0,0,0-12.4-12.4Z" transform="translate(-178.6 -103.5)"/><line class="cls-2" x1="7" y1="94.6" x2="385" y2="94.6"/><circle class="cls-3" cx="33.2" cy="33.1" r="9.2"/><circle class="cls-3" cx="69.1" cy="33" r="9.2"/><circle class="cls-3" cx="33.2" cy="69.3" r="9.2"/><circle class="cls-3" cx="69.1" cy="69.3" r="9.2"/><rect class="cls-2" x="185.5" y="26" width="179" height="50" rx="2"/><rect class="cls-4" x="47.4" y="99.6" width="23.8" height="102.29" rx="2"/><rect class="cls-4" x="101.8" y="99.6" width="23.8" height="102.29" rx="2"/><rect class="cls-4" x="210.5" y="99.6" width="23.8" height="102.29" rx="2"/><rect class="cls-4" x="264.9" y="99.6" width="23.8" height="102.29" rx="2"/><rect class="cls-4" x="319.3" y="99.6" width="23.8" height="102.29" rx="2"/><line class="cls-2" x1="59.9" y1="175.4" x2="59.9" y2="277.7"/><line class="cls-2" x1="114.3" y1="175.4" x2="114.3" y2="277.7"/><line class="cls-5" x1="108.1" y1="25.4" x2="108.1" y2="77.5"/><line class="cls-5" x1="112.7" y1="38.5" x2="103.5" y2="38.5"/><line class="cls-5" x1="136.5" y1="62.5" x2="127.3" y2="62.5"/><line class="cls-5" x1="131.9" y1="25.4" x2="131.9" y2="77.5"/><line class="cls-5" x1="160.2" y1="46.5" x2="151" y2="46.5"/><line class="cls-5" x1="155.6" y1="25.4" x2="155.6" y2="77.5"/><line class="cls-2" x1="168.7" y1="93.5" x2="168.7" y2="278.4"/><line class="cls-2" x1="223.1" y1="175.4" x2="223.1" y2="277.7"/><line class="cls-2" x1="277.5" y1="176.1" x2="277.5" y2="278.4"/><line class="cls-2" x1="331.8" y1="176.1" x2="331.8" y2="278.4"/><line class="cls-6" x1="69" y1="33.1" x2="80.9" y2="22.3"/><line class="cls-6" x1="33.1" y1="32.9" x2="48.5" y2="37.4"/><line class="cls-6" x1="33" y1="69.1" x2="25.4" y2="55"/><line class="cls-6" x1="69" y1="69.1" x2="84" y2="74.7"/><path class="cls-1" d="M558.9,449.5a1.8,1.8,0,0,1,1.8,1.8V710.7a1.8,1.8,0,0,1-1.8,1.8H189.5a1.9,1.9,0,0,1-1.9-1.8V451.3a1.9,1.9,0,0,1,1.9-1.8H558.9m0-9H189.5a10.9,10.9,0,0,0-10.9,10.8V710.7a10.9,10.9,0,0,0,10.9,10.8H558.9a10.9,10.9,0,0,0,10.8-10.8V451.3a10.9,10.9,0,0,0-10.8-10.8Z" transform="translate(-178.6 -103.5)"/><path class="cls-1" d="M455.2,490.5a10.6,10.6,0,0,0,6-9.4V454.9a9.7,9.7,0,0,0-.6-3.4h95.5v3.7a16.7,16.7,0,0,0-10.4-3.7,17,17,0,0,0-16.2,12.3,16.8,16.8,0,1,0,0,9.1,16.9,16.9,0,0,0,16.2,12.2,16.6,16.6,0,0,0,10.4-3.6v9Zm24.5-39a16.8,16.8,0,1,0,16.8,16.9A16.9,16.9,0,0,0,479.7,451.5Z" transform="translate(-178.6 -103.5)"/><path class="cls-1" d="M496.5,481.4a23.7,23.7,0,0,0,4.9,4.6h-9.8a21.4,21.4,0,0,0,4.9-4.6m33,.8a26,26,0,0,0,4.3,3.8h-8.5a25.3,25.3,0,0,0,4.2-3.8m-64.1,1.9a15.5,15.5,0,0,0,2.4,1.9h-3a10.6,10.6,0,0,0,.6-1.9M560.6,447H187.7v48H560.6V447ZM194.3,487a5.8,5.8,0,0,1-5.9-5.9V454.9a5.8,5.8,0,0,1,5.9-5.9H450.8a5.9,5.9,0,0,1,5.9,5.9v26.2a5.9,5.9,0,0,1-5.9,5.9Zm351.4-6.4A12.3,12.3,0,1,1,558,468.4a12.3,12.3,0,0,1-12.3,12.2Zm-32.4,0a12.3,12.3,0,1,1,12.3-12.2,12.3,12.3,0,0,1-12.3,12.2Zm-33.6,0A12.3,12.3,0,1,1,492,468.4a12.3,12.3,0,0,1-12.3,12.2Z" transform="translate(-178.6 -103.5)"/><text class="cls-7" transform="translate(16.8 374.1)">https://</text><path class="cls-8" d="M376.5,710s-5.2-38.1,50.6-80.9" transform="translate(-178.6 -103.5)"/><path class="cls-8" d="M348.8,711.8s10.4-58.2-28-115.4" transform="translate(-178.6 -103.5)"/><line class="cls-8" x1="140.8" y1="477.4" x2="140.2" y2="473.8"/><line class="cls-9" x1="138.3" y1="462.2" x2="136.4" y2="450.6"/><line class="cls-8" x1="135.5" y1="444.8" x2="134.9" y2="441.3"/><line class="cls-10" x1="151.2" y1="479.2" x2="176.6" y2="454.9"/><line class="cls-10" x1="155.6" y1="489.5" x2="186.7" y2="495.1"/><line class="cls-8" x1="135.3" y1="505.3" x2="134.9" y2="508.9"/><line class="cls-11" x1="133.8" y1="520.8" x2="132.4" y2="534.6"/><line class="cls-8" x1="131.8" y1="540.6" x2="131.4" y2="544.2"/><line class="cls-8" x1="129.8" y1="494.2" x2="126.6" y2="495.8"/><line class="cls-12" x1="113.1" y1="502.7" x2="101" y2="508.9"/><line class="cls-8" x1="94.3" y1="512.4" x2="91" y2="514"/><line class="cls-8" x1="129.5" y1="481.7" x2="124.2" y2="479"/><line class="cls-13" x1="113.3" y1="473.5" x2="96.9" y2="465.2"/><line class="cls-8" x1="91.4" y1="462.4" x2="86.1" y2="459.7"/><circle class="cls-1" cx="113.4" cy="453.1" r="2.6"/><circle class="cls-1" cx="158.3" cy="444.4" r="2.6"/><circle class="cls-1" cx="176.5" cy="477.9" r="2.6"/><circle class="cls-1" cx="174.1" cy="509.3" r="2.6"/><circle class="cls-1" cx="119" cy="525.4" r="2.6"/><circle class="cls-1" cx="106.9" cy="490.5" r="2.6"/><line class="cls-8" x1="252.6" y1="511" x2="253.6" y2="507.5"/><line class="cls-14" x1="257.3" y1="496" x2="261" y2="484.4"/><line class="cls-8" x1="262.8" y1="478.6" x2="263.9" y2="475.1"/><line class="cls-10" x1="242" y1="511" x2="220.5" y2="481.5"/><line class="cls-10" x1="236.1" y1="520.7" x2="197.5" y2="522.2"/><line class="cls-8" x1="251.8" y1="540.3" x2="251.9" y2="543.9"/><line class="cls-15" x1="252.1" y1="553.9" x2="252.3" y2="565.6"/><line class="cls-8" x1="252.4" y1="570.6" x2="252.5" y2="574.2"/><line class="cls-8" x1="261" y1="530.1" x2="263.9" y2="532.3"/><line class="cls-16" x1="274" y1="539.9" x2="283.1" y2="546.7"/><line class="cls-8" x1="288.2" y1="550.5" x2="291.1" y2="552.6"/><line class="cls-8" x1="263.1" y1="517.5" x2="268.8" y2="515.5"/><line class="cls-17" x1="280.7" y1="511.5" x2="298.5" y2="505.4"/><line class="cls-8" x1="304.4" y1="503.4" x2="310.1" y2="501.4"/><ellipse class="cls-1" cx="462.1" cy="594.6" rx="2.6" ry="2.7" transform="translate(-338 65.8) rotate(-17.8)"/><ellipse class="cls-1" cx="418.9" cy="577.7" rx="2.6" ry="2.7" transform="translate(-334.9 51.8) rotate(-17.8)"/><ellipse class="cls-1" cx="391.1" cy="607.4" rx="2.6" ry="2.7" transform="translate(-345.3 44.7) rotate(-17.8)"/><ellipse class="cls-1" cx="393.3" cy="641.1" rx="2.6" ry="2.7" transform="translate(-355.5 47) rotate(-17.8)"/><ellipse class="cls-1" cx="445.5" cy="667.5" rx="2.6" ry="2.7" transform="translate(-361 64.2) rotate(-17.8)"/><ellipse class="cls-1" cx="462.8" cy="634" rx="2.6" ry="2.7" transform="translate(-350 67.9) rotate(-17.8)"/><path class="cls-1" d="M670.8,304.9l8.6,27.5a1.9,1.9,0,0,1-2.9,2.1l-51.7-37.9a1.9,1.9,0,0,1,.6-3.3l62.2-15.5a1.9,1.9,0,0,1,1.9,3l-18.3,22.3A2,2,0,0,0,670.8,304.9Z" transform="translate(-178.6 -103.5)"/><text class="cls-18" transform="translate(489.1 327.7)">MIDI</text><path class="cls-5" d="M565,226.3c0,54.3,32.5,62.4,80.5,73.8h0c47.7,11.4,80,19.4,80,73.4" transform="translate(-178.6 -103.5)"/><path class="cls-1" d="M671.2,520.9l19.4,21.5a1.9,1.9,0,0,1-1.8,3.1L626,532.8a1.8,1.8,0,0,1-.8-3.3l49.9-40.1a1.9,1.9,0,0,1,3,1.9l-7.3,27.9A2,2,0,0,0,671.2,520.9Z" transform="translate(-178.6 -103.5)"/><path class="cls-5" d="M566.1,598.7c0-54.3,32.5-62.4,80.5-73.8h0c47.7-11.4,80-19.4,80-73.4" transform="translate(-178.6 -103.5)"/></svg>