<svg id="site" xmlns="http://www.w3.org/2000/svg" viewBox="0 0 1142 281"><defs><style>.cls-1,.cls-18,.cls-3,.cls-4,.cls-6,.cls-7{fill:#fff;}.cls-10,.cls-11,.cls-12,.cls-13,.cls-14,.cls-15,.cls-16,.cls-17,.cls-2,.cls-5,.cls-8,.cls-9{fill:none;}.cls-10,.cls-11,.cls-12,.cls-13,.cls-14,.cls-15,.cls-16,.cls-17,.cls-2,.cls-3,.cls-4,.cls-5,.cls-6,.cls-8,.cls-9{stroke:#fff;}.cls-2,.cls-3,.cls-4,.cls-6{stroke-miterlimit:10;}.cls-2,.cls-4,.cls-5{stroke-width:9px;}.cls-3{stroke-width:7px;}.cls-10,.cls-11,.cls-12,.cls-13,.cls-14,.cls-15,.cls-16,.cls-17,.cls-5,.cls-6,.cls-8,.cls-9{stroke-linecap:round;}.cls-10,.cls-11,.cls-12,.cls-13,.cls-14,.cls-15,.cls-16,.cls-17,.cls-5,.cls-8,.cls-9{stroke-linejoin:round;}.cls-6{stroke-width:6px;}.cls-7{font-size:28.06px;font-family:Exo-Black, Exo;font-weight:800;}.cls-10,.cls-11,.cls-12,.cls-13,.cls-14,.cls-15,.cls-16,.cls-17,.cls-8,.cls-9{stroke-width:7.2px;}.cls-9{stroke-dasharray:5.88 11.76;}.cls-10{stroke-dasharray:7.2 10.8;}.cls-11{stroke-dasharray:7.96 11.94;}.cls-12{stroke-dasharray:6.05 15.13;}.cls-13{stroke-dasharray:12.24 12.24;}.cls-14{stroke-dasharray:6.08 12.15;}.cls-15{stroke-dasharray:6.68 10.02;}.cls-16{stroke-dasharray:5.06 12.65;}.cls-17{stroke-dasharray:12.55 12.55;}.cls-18{font-size:52.44px;font-family:ClementePDaq-UltraBold, ClementePDaq;font-weight:700;}</style></defs><path class="cls-1" d="M557.3,112.5a3.4,3.4,0,0,1,3.4,3.4V372.1a3.4,3.4,0,0,1-3.4,3.4H191.1a3.4,3.4,0,0,1-3.4-3.4V115.9a3.4,3.4,0,0,1,3.4-3.4H557.3m0-9H191.1a12.4,12.4,0,0,0-12.4,12.4V372.1a12.4,12.4,0,0,0,12.4,12.4H557.3a12.5,12.5,0,0,0,12.4-12.4V115.9a12.5,12.5,0,0,0-12.4-12.4Z" transform="translate(-178.7 -103.5)"/><line class="cls-2" x1="7" y1="94.6" x2="385" y2="94.6"/><circle class="cls-3" cx="33.2" cy="33.1" r="9.2"/><circle class="cls-3" cx="69.1" cy="33" r="9.2"/><circle class="cls-3" cx="33.2" cy="69.3" r="9.2"/><circle class="cls-3" cx="69.1" cy="69.3" r="9.2"/><rect class="cls-2" x="185.5" y="26" width="179" height="50" rx="2"/><rect class="cls-4" x="47.4" y="99.6" width="23.8" height="102.29" rx="2"/><rect class="cls-4" x="101.7" y="99.6" width="23.8" height="102.29" rx="2"/><rect class="cls-4" x="210.5" y="99.6" width="23.8" height="102.29" rx="2"/><rect class="cls-4" x="264.9" y="99.6" width="23.8" height="102.29" rx="2"/><rect class="cls-4" x="319.3" y="99.6" width="23.8" height="102.29" rx="2"/><line class="cls-2" x1="59.9" y1="175.4" x2="59.9" y2="277.7"/><line class="cls-2" x1="114.3" y1="175.4" x2="114.3" y2="277.7"/><line class="cls-5" x1="108.1" y1="25.4" x2="108.1" y2="77.5"/><line class="cls-5" x1="112.7" y1="38.5" x2="103.5" y2="38.5"/><line class="cls-5" x1="136.5" y1="62.5" x2="127.2" y2="62.5"/><line class="cls-5" x1="131.8" y1="25.4" x2="131.8" y2="77.5"/><line class="cls-5" x1="160.2" y1="46.5" x2="151" y2="46.5"/><line class="cls-5" x1="155.6" y1="25.4" x2="155.6" y2="77.5"/><line class="cls-2" x1="168.7" y1="93.5" x2="168.7" y2="278.4"/><line class="cls-2" x1="223.1" y1="175.4" x2="223.1" y2="277.7"/><line class="cls-2" x1="277.4" y1="176.1" x2="277.4" y2="278.4"/><line class="cls-2" x1="331.8" y1="176.1" x2="331.8" y2="278.4"/><line class="cls-6" x1="69" y1="33.1" x2="80.9" y2="22.3"/><line class="cls-6" x1="33.1" y1="32.9" x2="48.4" y2="37.4"/><line class="cls-6" x1="33" y1="69.1" x2="25.3" y2="55"/><line class="cls-6" x1="69" y1="69.1" x2="84" y2="74.7"/><path class="cls-1" d="M1309.9,112.5a1.8,1.8,0,0,1,1.8,1.8V373.7a1.8,1.8,0,0,1-1.8,1.8H940.5a1.9,1.9,0,0,1-1.9-1.8V114.3a1.9,1.9,0,0,1,1.9-1.8h369.4m0-9H940.5a10.9,10.9,0,0,0-10.9,10.8V373.7a10.9,10.9,0,0,0,10.9,10.8h369.4a10.9,10.9,0,0,0,10.8-10.8V114.3a10.9,10.9,0,0,0-10.8-10.8Z" transform="translate(-178.7 -103.5)"/><path class="cls-1" d="M1206.2,153.5a10.6,10.6,0,0,0,6-9.4V117.9a9.7,9.7,0,0,0-.6-3.4h95.5v3.7a16.7,16.7,0,0,0-10.4-3.7,17,17,0,0,0-16.2,12.3,16.8,16.8,0,1,0,0,9.1,16.9,16.9,0,0,0,16.2,12.2,16.6,16.6,0,0,0,10.4-3.6v9Zm24.5-39a16.8,16.8,0,1,0,16.8,16.9A16.9,16.9,0,0,0,1230.7,114.5Z" transform="translate(-178.7 -103.5)"/><path class="cls-1" d="M1247.5,144.4a23.7,23.7,0,0,0,4.9,4.6h-9.8a21.4,21.4,0,0,0,4.9-4.6m33,.8a26,26,0,0,0,4.3,3.8h-8.5a25.3,25.3,0,0,0,4.2-3.8m-64.1,1.9a15.5,15.5,0,0,0,2.4,1.9h-3a10.6,10.6,0,0,0,.6-1.9m95.2-37.1H938.7v48h372.9V110ZM945.3,150a5.8,5.8,0,0,1-5.9-5.9V117.9a5.8,5.8,0,0,1,5.9-5.9h256.5a5.9,5.9,0,0,1,5.9,5.9v26.2a5.9,5.9,0,0,1-5.9,5.9Zm351.4-6.4a12.3,12.3,0,1,1,12.3-12.2,12.3,12.3,0,0,1-12.3,12.2Zm-32.4,0a12.3,12.3,0,1,1,12.3-12.2,12.3,12.3,0,0,1-12.3,12.2Zm-33.6,0a12.3,12.3,0,1,1,12.3-12.2,12.3,12.3,0,0,1-12.3,12.2Z" transform="translate(-178.7 -103.5)"/><text class="cls-7" transform="translate(767.8 37.1)">https://</text><path class="cls-8" d="M1127.5,373s-5.2-38.1,50.6-80.9" transform="translate(-178.7 -103.5)"/><path class="cls-8" d="M1099.8,374.8s10.4-58.2-28-115.4" transform="translate(-178.7 -103.5)"/><line class="cls-8" x1="891.8" y1="140.4" x2="891.2" y2="136.8"/><line class="cls-9" x1="889.3" y1="125.2" x2="887.4" y2="113.6"/><line class="cls-8" x1="886.5" y1="107.8" x2="885.9" y2="104.3"/><line class="cls-10" x1="902.2" y1="142.2" x2="927.6" y2="117.9"/><line class="cls-10" x1="906.5" y1="152.5" x2="937.7" y2="158.1"/><line class="cls-8" x1="886.3" y1="168.3" x2="885.9" y2="171.9"/><line class="cls-11" x1="884.7" y1="183.8" x2="883.3" y2="197.6"/><line class="cls-8" x1="882.8" y1="203.6" x2="882.4" y2="207.2"/><line class="cls-8" x1="880.7" y1="157.2" x2="877.5" y2="158.8"/><line class="cls-12" x1="864.1" y1="165.7" x2="852" y2="171.9"/><line class="cls-8" x1="845.2" y1="175.4" x2="842" y2="177"/><line class="cls-8" x1="880.5" y1="144.7" x2="875.1" y2="142"/><line class="cls-13" x1="864.2" y1="136.5" x2="847.9" y2="128.2"/><line class="cls-8" x1="842.4" y1="125.4" x2="837" y2="122.7"/><circle class="cls-1" cx="864.4" cy="116.1" r="2.6"/><circle class="cls-1" cx="909.2" cy="107.4" r="2.6"/><circle class="cls-1" cx="927.5" cy="140.9" r="2.6"/><circle class="cls-1" cx="925.1" cy="172.3" r="2.6"/><circle class="cls-1" cx="870" cy="188.4" r="2.6"/><circle class="cls-1" cx="857.9" cy="153.5" r="2.6"/><line class="cls-8" x1="1003.5" y1="174" x2="1004.6" y2="170.5"/><line class="cls-14" x1="1008.3" y1="159" x2="1012" y2="147.4"/><line class="cls-8" x1="1013.8" y1="141.6" x2="1014.9" y2="138.1"/><line class="cls-10" x1="992.9" y1="174" x2="971.4" y2="144.5"/><line class="cls-10" x1="987.1" y1="183.7" x2="948.4" y2="185.2"/><line class="cls-8" x1="1002.8" y1="203.3" x2="1002.9" y2="206.9"/><line class="cls-15" x1="1003.1" y1="216.9" x2="1003.3" y2="228.6"/><line class="cls-8" x1="1003.4" y1="233.6" x2="1003.4" y2="237.2"/><line class="cls-8" x1="1011.9" y1="193.1" x2="1014.8" y2="195.3"/><line class="cls-16" x1="1025" y1="202.9" x2="1034.1" y2="209.7"/><line class="cls-8" x1="1039.2" y1="213.5" x2="1042" y2="215.6"/><line class="cls-8" x1="1014.1" y1="180.5" x2="1019.8" y2="178.5"/><line class="cls-17" x1="1031.6" y1="174.5" x2="1049.5" y2="168.4"/><line class="cls-8" x1="1055.4" y1="166.4" x2="1061.1" y2="164.4"/><ellipse class="cls-1" cx="1213.1" cy="257.6" rx="2.6" ry="2.7" transform="translate(-199.4 278.8) rotate(-17.8)"/><ellipse class="cls-1" cx="1169.9" cy="240.7" rx="2.6" ry="2.7" transform="matrix(0.95, -0.31, 0.31, 0.95, -196.32, 264.82)"/><ellipse class="cls-1" cx="1142.1" cy="270.4" rx="2.6" ry="2.7" transform="translate(-206.7 257.8) rotate(-17.8)"/><ellipse class="cls-1" cx="1144.3" cy="304.1" rx="2.6" ry="2.7" transform="translate(-216.9 260.1) rotate(-17.8)"/><ellipse class="cls-1" cx="1196.5" cy="330.5" rx="2.6" ry="2.7" transform="translate(-222.5 277.2) rotate(-17.8)"/><ellipse class="cls-1" cx="1213.8" cy="297" rx="2.6" ry="2.7" transform="translate(-211.4 280.9) rotate(-17.8)"/><path class="cls-1" d="M841,324.2l-27-7.4a2,2,0,0,1-.2-3.9L872.4,290a2.1,2.1,0,0,1,2.7,2.6l-19.9,59.6a2.1,2.1,0,0,1-4,0l-8.7-26.6A2.1,2.1,0,0,0,841,324.2Z" transform="translate(-178.7 -103.5)"/><path class="cls-1" d="M651.4,207.2l26.3,12.1a1.9,1.9,0,0,1-.4,3.5L614.5,236a1.9,1.9,0,0,1-2-2.7l30-56.6a1.9,1.9,0,0,1,3.5.6l4.4,28.5A2.1,2.1,0,0,0,651.4,207.2Z" transform="translate(-178.7 -103.5)"/><text class="cls-18" transform="matrix(0.55, 0.84, -0.84, 0.55, 515.1, 129.98)">MIDI</text><path class="cls-5" d="M781.5,331.5c8.2,7.9,13.8,9,23.2,9,50.5,0,75.1-84.2,128.2-84.2" transform="translate(-178.7 -103.5)"/><path class="cls-5" d="M566.4,251.1c55.7,0,62.2-50.5,110.1-50.5,11.3,0,18.2,4,28,15.9" transform="translate(-178.7 -103.5)"/></svg>