<?xml version="1.0" encoding="UTF-8" standalone="no"?>
<svg xmlns="http://www.w3.org/2000/svg" xmlns:xlink="http://www.w3.org/1999/xlink" width="40px" height="40px" viewBox="0 0 40 40" version="1.1"><title>Hurrah Old School!</title><desc>Your unique vanillicon is crafted with love by the team at vanillaforums.com.</desc><defs/><g id="vanillicon" stroke="none" stroke-width="1" fill="none" fill-rule="evenodd"><rect id="background" fill="#F43A6C" x="-2" y="-2" width="44" height="44"/><g id="avatar" transform="rotate(-44, 20, 20) translate(3.000000, 3.000000)"><circle id="body" fill="#0C9E9C" cx="17" cy="17" r="16"/><g id="eyes" transform="translate(10.000000, 11.000000)" fill="#F4FEEC"><rect id="left_eye" x="0" y="0" width="4" height="6" rx="2"/><rect id="right_eye" x="10" y="0" width="4" height="6" rx="2"/></g><g id="mouth" transform="translate(10.000000, 20.000000)" fill="#F4FEEC"><path d="M7,8 C10.8659932,8 14,5.209139 14,3 C14,0.790861001 10.8659932,0 7,0 C3.13400675,0 0,0.790861001 0,3 C0,5.209139 3.13400675,8 7,8 Z M7,7.5 C8.65685425,7.5 10,7 10,6 C10,5.17157288 8.65685425,4.5 7,4.5 C5.34314575,4.5 4,5.17157288 4,6 C4,7 5.34314575,7.5 7,7.5 Z" id="mouth"/></g><path d="M34,17 C34,7.61115925 26.3888407,0 17,0 C7.61115925,0 0,7.61115925 0,17 C0,26.3888407 7.61115925,34 17,34 C26.3888407,34 34,26.3888407 34,17 Z M3,17 C3,9.2680135 9.2680135,3 17,3 C24.7319865,3 31,9.2680135 31,17 C31,24.7319865 24.7319865,31 17,31 C9.2680135,31 3,24.7319865 3,17 Z" id="circle" fill="#F4FEEC"/></g></g></svg>
