<?xml version="1.0" encoding="UTF-8" standalone="no"?>
<svg xmlns="http://www.w3.org/2000/svg" xmlns:xlink="http://www.w3.org/1999/xlink" width="40px" height="40px" viewBox="0 0 40 40" version="1.1"><title>Cool</title><desc>Your unique vanillicon is crafted with love by the team at vanillaforums.com.</desc><defs/><g id="vanillicon" stroke="none" stroke-width="1" fill="none" fill-rule="evenodd"><rect id="background" fill="#FC3C76" x="-2" y="-2" width="44" height="44"/><g id="avatar" transform="rotate(-9, 20, 20) translate(3.000000, 3.000000)"><circle id="body" fill="#FCDAE4" cx="17" cy="17" r="16"/><g id="eyes" transform="translate(2.000000, 9.000000)" fill="#694257"><path d="M4.93809112,3.95697555 C4.32394617,5.04302166 3.40513479,5.70776665 2.88663043,5.44198321 C2.36842682,5.17534056 2.44602202,4.0795567 3.06016698,2.993797 C3.67461269,1.90775089 4.59312332,1.24271949 5.11162768,1.50878933 C5.63013204,1.77543198 5.55253684,2.87121584 4.93809112,3.95697555 L4.93809112,3.95697555 Z M13.9030435,2.95112272 C13.3959679,1.14161868 11.2338288,-0.13316804 7.95167215,0.0421115531 C2.31609518,0.342836346 2,2.50089474 2,5.53420548 C2,8.56694342 4.52815989,11.026013 6.16096742,11.026013 C10.1637369,11.026013 14.7250113,5.88190063 13.9030435,2.95112272 L13.9030435,2.95112272 Z" id="Stroke-3"/><path d="M17,2 L12.5,2 L10.5,0.5 L19,0.5 L17,2 Z" id="Fill-5"/><path d="M19.2292878,3.43675322 C18.6151394,4.52308574 17.6966237,5.18725793 17.1781165,4.9217609 C16.6596092,4.65511825 16.7372049,3.55962078 17.3513532,2.47357467 C17.9658023,1.38781495 18.884318,0.722783551 19.403126,0.988853393 C19.9213325,1.25520964 19.8437369,2.35099351 19.2292878,3.43675322 L19.2292878,3.43675322 Z M22.0485957,0.0419998968 C18.7664208,-0.133279698 16.6042697,1.14150703 16.0968905,2.95129748 C15.275219,5.88178901 19.8365187,11.0259014 23.8393103,11.0259014 C25.4721269,11.0259014 28,8.56683181 28,5.53409386 C28,2.5007831 27.6842038,0.342724691 22.0485957,0.0419998968 L22.0485957,0.0419998968 Z" id="Stroke-9"/><path d="M27,5 L30,5 L30,3 L27,3 L27,5 Z" id="Fill-10"/><path d="M0,5 L2.5,5 L2.5,3 L0,3 L0,5 Z" id="Fill-11"/><path d="M15,2.5 C13.9208932,2.5 13.1655273,3.36560654 13.1655273,4.5 L13.8878174,4.5 C13.8878174,3.93220642 14.4598117,3.5 15,3.5 C15.5867047,3.5 16.1126099,3.86930136 16.1126099,4.5 L16.8092651,4.5 C16.8092651,3.29036902 16.1154762,2.5 15,2.5 Z" id="Stroke-7"/></g><g id="mouth" transform="translate(8.000000, 21.000000)" fill="#694257"><path d="M9,4 C6.56280403,4 4.30810347,2.9053331 2.79658908,1.05197421 C2.27300889,0.409980996 1.32812496,0.313988266 0.686131742,0.837568449 C0.0441385239,1.36114863 -0.051854207,2.30603257 0.471725977,2.94802579 C2.54705768,5.49271506 5.65163333,7 9,7 C12.3483667,7 15.4529423,5.49271506 17.528274,2.94802579 C18.0518542,2.30603257 17.9558615,1.36114863 17.3138683,0.837568449 C16.671875,0.313988266 15.7269911,0.409980996 15.2034109,1.05197421 C13.6918965,2.9053331 11.437196,4 9,4 Z" id="mouth"/></g><path d="M34,17 C34,7.61115925 26.3888407,0 17,0 C7.61115925,0 0,7.61115925 0,17 C0,26.3888407 7.61115925,34 17,34 C26.3888407,34 34,26.3888407 34,17 Z M3,17 C3,9.2680135 9.2680135,3 17,3 C24.7319865,3 31,9.2680135 31,17 C31,24.7319865 24.7319865,31 17,31 C9.2680135,31 3,24.7319865 3,17 Z" id="circle" fill="#694257"/></g></g></svg>
