<?xml version="1.0" encoding="UTF-8" standalone="no"?>
<svg xmlns="http://www.w3.org/2000/svg" xmlns:xlink="http://www.w3.org/1999/xlink" width="40px" height="40px" viewBox="0 0 40 40" version="1.1"><title>Happy Kawaii</title><desc>Your unique vanillicon is crafted with love by the team at vanillaforums.com.</desc><defs/><g id="vanillicon" stroke="none" stroke-width="1" fill="none" fill-rule="evenodd"><rect id="background" fill="#141E44" x="-2" y="-2" width="44" height="44"/><g id="avatar" transform="rotate(-1, 20, 20) translate(3.000000, 3.000000)"><circle id="body" fill="#CC0604" cx="17" cy="17" r="16"/><g id="eyes" transform="translate(7.000000, 9.000000)" fill="#FBFDFB"><path d="M8.78678816,2.8485672 C8.46451431,1.14195392 7.60193603,0 5.98008964,0 C3.20368504,0 0.712149311,2.90767357 0.0873727623,5.70372061 C-0.0106613481,6.14245024 0.00281627879,6.25278427 0.00281627879,6.25278427 C-0.0333861709,6.66546012 0.27215408,7 0.684131977,7 L2.21181176,7 C2.62429448,7 2.99935929,6.66127425 3.0660017,6.26725678 C3.0660017,6.26725678 3.01873993,6.36901902 3.1248407,6.03447272 C3.58805944,4.57389778 4.97295212,3 5.47652076,3 C5.84042778,3 5.9800894,3 5.9800894,3.5 C5.9800894,4.21584289 5.98008958,6.24135654 5.98008958,6.24135654 C5.98008961,6.66034375 6.31497777,7 6.72695567,7 L8.25463545,7 C8.66711817,7 9.0012393,6.66078161 8.99999662,6.24817443 C8.99999662,6.24817443 8.96962626,3.81679327 8.78678816,2.8485672 Z" id="left_eye"/><path d="M19.7867882,2.8485672 C19.4645143,1.14195392 18.601936,0 16.9800896,0 C14.203685,0 11.7121493,2.90767357 11.0873728,5.70372061 C10.9893387,6.14245024 11.0028163,6.25278427 11.0028163,6.25278427 C10.9666138,6.66546012 11.2721541,7 11.684132,7 L13.2118118,7 C13.6242945,7 13.9993593,6.66127425 14.0660017,6.26725678 C14.0660017,6.26725678 14.0187399,6.36901902 14.1248407,6.03447272 C14.5880594,4.57389778 15.9729521,3 16.4765208,3 C16.8404278,3 16.9800894,3 16.9800894,3.5 C16.9800894,4.21584289 16.9800896,6.24135654 16.9800896,6.24135654 C16.9800896,6.66034375 17.3149778,7 17.7269557,7 L19.2546355,7 C19.6671182,7 20.0012393,6.66078161 19.9999966,6.24817443 C19.9999966,6.24817443 19.9696263,3.81679327 19.7867882,2.8485672 Z" id="right_eye" transform="translate(15.500000, 3.500000) scale(-1, 1) translate(-15.500000, -3.500000) "/></g><g id="mouth" transform="translate(7.000000, 19.000000)" fill="#FBFDFB"><path d="M10,6 C6.85550811,6 4.04347914,4.16987949 2.74086274,1.36769357 C2.39164954,0.616466815 1.4995667,0.29057043 0.74833994,0.639783626 C-0.00288681965,0.988996821 -0.328783205,1.88107967 0.0204299911,2.63230643 C1.81062632,6.48337335 5.67749028,9 10,9 C14.3225097,9 18.1893737,6.48337335 19.97957,2.63230643 C20.3287832,1.88107967 20.0028868,0.988996821 19.2516601,0.639783626 C18.5004333,0.29057043 17.6083505,0.616466815 17.2591373,1.36769357 C15.9565209,4.16987949 13.1444919,6 10,6 Z" id="mouth"/></g><path d="M34,17 C34,7.61115925 26.3888407,0 17,0 C7.61115925,0 0,7.61115925 0,17 C0,26.3888407 7.61115925,34 17,34 C26.3888407,34 34,26.3888407 34,17 Z M3,17 C3,9.2680135 9.2680135,3 17,3 C24.7319865,3 31,9.2680135 31,17 C31,24.7319865 24.7319865,31 17,31 C9.2680135,31 3,24.7319865 3,17 Z" id="circle" fill="#FBFDFB"/></g></g></svg>
