<?xml version="1.0" encoding="UTF-8" standalone="no"?>
<svg xmlns="http://www.w3.org/2000/svg" xmlns:xlink="http://www.w3.org/1999/xlink" width="40px" height="40px" viewBox="0 0 40 40" version="1.1"><title>Delighted and Surprised</title><desc>Your unique vanillicon is crafted with love by the team at vanillaforums.com.</desc><defs/><g id="vanillicon" stroke="none" stroke-width="1" fill="none" fill-rule="evenodd"><rect id="background" fill="#9CEEFC" x="-2" y="-2" width="44" height="44"/><g id="avatar" transform="rotate(-5, 20, 20) translate(3.000000, 3.000000)"><circle id="body" fill="#F43E04" cx="17" cy="17" r="16"/><g id="eyes" transform="translate(6.000000, 10.000000)" fill="#1C225C"><circle id="left_eye" cx="3.5" cy="3.5" r="3.5"/><circle id="right_eye" transform="translate(18.500000, 3.500000) scale(-1, 1) translate(-18.500000, -3.500000) " cx="18.5" cy="3.5" r="3.5"/></g><g id="mouth" transform="translate(7.000000, 21.000000)" fill="#1C225C"><path d="M18.662178,2.27373675e-13 L1.33782195,2.27373675e-13 C0.567648897,2.38031816e-13 0.0865704462,0.834059642 0.472216086,1.50072596 C2.4247624,4.87609629 6.02788849,7 10,7 C13.9721115,7 17.5752376,4.87609629 19.5277839,1.50072596 C19.9134296,0.834059642 19.4323511,2.16715534e-13 18.662178,2.27373675e-13 Z" id="mouth"/></g><path d="M34,17 C34,7.61115925 26.3888407,0 17,0 C7.61115925,0 0,7.61115925 0,17 C0,26.3888407 7.61115925,34 17,34 C26.3888407,34 34,26.3888407 34,17 Z M3,17 C3,9.2680135 9.2680135,3 17,3 C24.7319865,3 31,9.2680135 31,17 C31,24.7319865 24.7319865,31 17,31 C9.2680135,31 3,24.7319865 3,17 Z" id="circle" fill="#1C225C"/></g></g></svg>
