<?xml version="1.0" encoding="UTF-8" standalone="no"?>
<svg xmlns="http://www.w3.org/2000/svg" xmlns:xlink="http://www.w3.org/1999/xlink" width="40px" height="40px" viewBox="0 0 40 40" version="1.1"><title>Delighted Sleep</title><desc>Your unique vanillicon is crafted with love by the team at vanillaforums.com.</desc><defs/><g id="vanillicon" stroke="none" stroke-width="1" fill="none" fill-rule="evenodd"><rect id="background" fill="#141E44" x="-2" y="-2" width="44" height="44"/><g id="avatar" transform="rotate(-11, 20, 20) translate(3.000000, 3.000000)"><circle id="body" fill="#CC0604" cx="17" cy="17" r="16"/><g id="eyes" transform="translate(8.000000, 12.000000)" fill="#FBFDFB"><path d="M4,4 C5.5286763,4 7.25070761,3.23465275 7.89442719,1.9472136 C8.14141644,1.4532351 7.94119209,0.852562058 7.4472136,0.605572809 C6.9532351,0.35858356 6.35256206,0.558807907 6.10557281,1.0527864 C5.85643524,1.55106153 4.8463237,2 4,2 C3.1536763,2 2.14356476,1.55106153 1.89442719,1.0527864 C1.64743794,0.558807907 1.0467649,0.35858356 0.552786405,0.605572809 C0.0588079071,0.852562058 -0.14141644,1.4532351 0.105572809,1.9472136 C0.749292387,3.23465275 2.4713237,4 4,4 Z" id="left_eye"/><path d="M14,4 C15.5286763,4 17.2507076,3.23465275 17.8944272,1.9472136 C18.1414164,1.4532351 17.9411921,0.852562058 17.4472136,0.605572809 C16.9532351,0.35858356 16.3525621,0.558807907 16.1055728,1.0527864 C15.8564352,1.55106153 14.8463237,2 14,2 C13.1536763,2 12.1435648,1.55106153 11.8944272,1.0527864 C11.6474379,0.558807907 11.0467649,0.35858356 10.5527864,0.605572809 C10.0588079,0.852562058 9.85858356,1.4532351 10.1055728,1.9472136 C10.7492924,3.23465275 12.4713237,4 14,4 Z" id="right_eye"/></g><g id="mouth" transform="translate(7.000000, 21.000000)" fill="#FBFDFB"><path d="M18.662178,2.27373675e-13 L1.33782195,2.27373675e-13 C0.567648897,2.38031816e-13 0.0865704462,0.834059642 0.472216086,1.50072596 C2.4247624,4.87609629 6.02788849,7 10,7 C13.9721115,7 17.5752376,4.87609629 19.5277839,1.50072596 C19.9134296,0.834059642 19.4323511,2.16715534e-13 18.662178,2.27373675e-13 Z" id="mouth"/></g><path d="M34,17 C34,7.61115925 26.3888407,0 17,0 C7.61115925,0 0,7.61115925 0,17 C0,26.3888407 7.61115925,34 17,34 C26.3888407,34 34,26.3888407 34,17 Z M3,17 C3,9.2680135 9.2680135,3 17,3 C24.7319865,3 31,9.2680135 31,17 C31,24.7319865 24.7319865,31 17,31 C9.2680135,31 3,24.7319865 3,17 Z" id="circle" fill="#FBFDFB"/></g></g></svg>
