<?xml version="1.0" encoding="UTF-8" standalone="no"?>
<svg xmlns="http://www.w3.org/2000/svg" xmlns:xlink="http://www.w3.org/1999/xlink" width="40px" height="40px" viewBox="0 0 40 40" version="1.1"><title>Simply Content</title><desc>Your unique vanillicon is crafted with love by the team at vanillaforums.com.</desc><defs/><g id="vanillicon" stroke="none" stroke-width="1" fill="none" fill-rule="evenodd"><rect id="background" fill="#6C9264" x="-2" y="-2" width="44" height="44"/><g id="avatar" transform="rotate(11, 20, 20) translate(3.000000, 3.000000)"><g id="body" transform="translate(1.000000, 1.000000)" fill="#F4DA44"><circle id="b" cx="16" cy="16" r="16"/><path d="M24.5,1.5 L26.5,8.5 L31.5,3 L24.5,1.5 Z" id="r" transform="translate(28.000000, 5.000000) scale(-1, 1) translate(-28.000000, -5.000000) "/><path d="M0.5,1.5 L2.5,8.5 L7.5,3 L0.5,1.5 Z" id="l"/></g><g id="eyes" transform="translate(8.000000, 9)" fill="#04022C"><path d="M3,6 C4.65685425,6 6,4.65685425 6,3 C6,1.34314575 4.65685425,0 3,0 C1.34314575,0 0,1.34314575 0,3 C0,4.65685425 1.34314575,6 3,6 Z" id="left_eye"/><circle id="right_eye" cx="15" cy="3" r="3"/></g><g id="mouth" transform="translate(6.000000, 16.000000)" fill="#04022C"><path d="M11,9 C6.8954997,9 3.46746846,5.89323425 3.04386288,1.8439336 C2.95766979,1.02000262 2.21986845,0.421947905 1.39593748,0.508140999 C0.572006502,0.594334094 -0.0260482141,1.33213543 0.0601448809,2.1560664 C0.643162098,7.72920361 5.35559446,12 11,12 C16.6444055,12 21.3568379,7.72920361 21.9398551,2.1560664 C22.0260482,1.33213543 21.4279935,0.594334094 20.6040625,0.508140999 C19.7801315,0.421947905 19.0423302,1.02000262 18.9561371,1.8439336 C18.5325315,5.89323425 15.1045003,9 11,9 Z" id="mouth"/></g><g id="circle" fill="#04022C"><path d="M1.49461102,1.46173693 C0.945302524,1.48286904 0.475903005,1.95704137 0.461736917,2.49461104 C0.461736917,2.49461104 -1.00299467e-08,8.00000011 2.49999998,10.4999998 C2.49999998,10.4999998 7.50000002,5.5 9.50000001,3.50000001 C6.99999999,1.00000002 1.49461102,1.46173693 1.49461102,1.46173693 Z M4.5,7.5 C3.00000002,5.99999996 3.04242827,4.48629307 3.04242827,4.48629307 C3.01899579,4.21772082 3.22660638,4.01290267 3.49791209,4.04524294 C3.49791209,4.04524294 5,4 6.50000006,5.53953457 C6.16963542,6.01573659 4.5,7.5 4.5,7.5 Z" id="l"/><path d="M32.505389,1.46173692 C33.0546975,1.48286904 33.524097,1.95704135 33.5382631,2.49461102 C33.5382631,2.49461102 34,7.99999999 31.5,10.5 C31.5,10.5 26.4999995,5.49999998 24.4999995,3.49999999 C27,0.999999991 32.505389,1.46173692 32.505389,1.46173692 Z M29.5,7.50000004 C31,6 30.9575717,4.48629308 30.9575717,4.48629308 C30.9810042,4.21772083 30.7733936,4.01257133 30.5020879,4.04408112 C30.5020879,4.04408112 29,3.99999999 27.5,5.50000004 L29.5,7.50000004 Z" id="r"/><path d="M34,17 C34,7.61115925 26.3888407,0 17,0 C7.61115925,0 0,7.61115925 0,17 C0,26.3888407 7.61115925,34 17,34 C26.3888407,34 34,26.3888407 34,17 Z M3,17 C3,9.2680135 9.2680135,3 17,3 C24.7319865,3 31,9.2680135 31,17 C31,24.7319865 24.7319865,31 17,31 C9.2680135,31 3,24.7319865 3,17 Z" id="c"/></g></g></g></svg>
