<?xml version="1.0" encoding="UTF-8" standalone="no"?>
<svg xmlns="http://www.w3.org/2000/svg" xmlns:xlink="http://www.w3.org/1999/xlink" width="40px" height="40px" viewBox="0 0 40 40" version="1.1"><title>LOL</title><desc>Your unique vanillicon is crafted with love by the team at vanillaforums.com.</desc><defs/><g id="vanillicon" stroke="none" stroke-width="1" fill="none" fill-rule="evenodd"><rect id="background" fill="#FCFABC" x="-2" y="-2" width="44" height="44"/><g id="avatar" transform="rotate(28, 20, 20) translate(3.000000, 3.000000)"><circle id="body" fill="#16D4A3" cx="17" cy="17" r="15"/><g id="eyes" transform="translate(8.000000, 9)" fill="#2C2A24"><path d="M3.5,3 C5.43299662,3 7,5.43299662 7,3.5 C7,1.56700338 5.43299662,0 3.5,0 C1.56700338,0 0,1.56700338 0,3.5 C0,5.43299662 1.56700338,3 3.5,3 Z" id="left_eye"/><path d="M14.5,3 C16.4329966,3 18,5.43299662 18,3.5 C18,1.56700338 16.4329966,0 14.5,0 C12.5670034,0 11,1.56700338 11,3.5 C11,5.43299662 12.5670034,3 14.5,3 Z" id="right_eye"/></g><g id="mouth" transform="translate(6.000000, 18.000000)" fill="#2C2A24"><path d="M20.7999638,0 L1.20003623,0 C0.567817367,0 0.0942542904,0.579349324 0.220022974,1.19893219 C1.25292476,6.2873869 5.74469724,10 11,10 C16.2553028,10 20.7470752,6.2873869 21.779977,1.19893219 C21.9057457,0.579349324 21.4321826,0 20.7999638,0 Z" id="mouth"/></g><path d="M34,17 C34,7.61115925 26.3888407,0 17,0 C7.61115925,0 0,7.61115925 0,17 C0,26.3888407 7.61115925,34 17,34 C26.3888407,34 34,26.3888407 34,17 Z M3,17 C3,9.2680135 9.2680135,3 17,3 C24.7319865,3 31,9.2680135 31,17 C31,24.7319865 24.7319865,31 17,31 C9.2680135,31 3,24.7319865 3,17 Z" id="circle" fill="#2C2A24"/></g></g></svg>
