<?xml version="1.0" encoding="UTF-8" standalone="no"?>
<svg xmlns="http://www.w3.org/2000/svg" xmlns:xlink="http://www.w3.org/1999/xlink" width="40px" height="40px" viewBox="0 0 40 40" version="1.1"><title>Satisfied</title><desc>Your unique vanillicon is crafted with love by the team at vanillaforums.com.</desc><defs/><g id="vanillicon" stroke="none" stroke-width="1" fill="none" fill-rule="evenodd"><rect id="background" fill="#C5E37F" x="-2" y="-2" width="44" height="44"/><g id="avatar" transform="rotate(-2, 20, 20) translate(3.000000, 3.000000)"><circle id="body" fill="#FF6EAC" cx="17" cy="17" r="16"/><g id="eyes" transform="translate(6.000000, 7.000000)" fill="#2E0B0B"><path d="M4.48520012,2.94042492 C6.96432014,2.94042492 8.97404401,3.49270967 8.97404401,2.94042492 C8.97404401,2.38814017 6.96432014,0.940424916 4.48520012,0.940424916 C2.0060801,0.940424916 -0.00364376821,2.38814017 -0.00364376821,2.94042492 C-0.00364376821,3.49270967 2.0060801,2.94042492 4.48520012,2.94042492 Z" id="left_brow" transform="translate(4.485200, 2.063155) rotate(-7.000000) translate(-4.485200, -2.063155) "/><path d="M17.4852001,2.94042492 C19.9643201,2.94042492 21.974044,3.49270967 21.974044,2.94042492 C21.974044,2.38814017 19.9643201,0.940424916 17.4852001,0.940424916 C15.0060801,0.940424916 12.9963562,2.38814017 12.9963562,2.94042492 C12.9963562,3.49270967 15.0060801,2.94042492 17.4852001,2.94042492 Z" id="right_brow" transform="translate(17.485200, 2.063155) scale(-1, 1) rotate(-7.000000) translate(-17.485200, -2.063155) "/><path d="M5,8 C6.93299662,8 9,8.88071187 9,7.5 C9,6.11928813 6.93299662,5 5,5 C3.06700338,5 1,6.11928813 1,7.5 C1,8.88071187 3.06700338,8 5,8 Z" id="left_eye"/><path d="M17,8 C18.9329966,8 21,8.88071187 21,7.5 C21,6.11928813 18.9329966,5 17,5 C15.0670034,5 13,6.11928813 13,7.5 C13,8.88071187 15.0670034,8 17,8 Z" id="right_eye"/></g><g id="mouth" transform="translate(6.000000, 18.000000)" fill="#2E0B0B"><path d="M6,9 C8.04115394,9 10.5000003,7.50000006 11.0000003,6.50000006 C11.5000003,7.50000006 13.958846,9 16,9 C20.9016769,9 23.9242933,4.46607606 20.6523328,0.539723401 C20.1219867,-0.0966919453 19.1761396,-0.182678041 18.5397243,0.347668081 C17.9033089,0.878014202 17.8173228,1.82386125 18.3476689,2.4602766 C19.7979308,4.20059082 18.5983245,6 16,6 C14.9786539,6 14.1065574,5.48320208 13.351671,4.55411107 C13.0648528,4.20110414 12.8195315,3.81628636 12.6194336,3.43209839 C12.5028026,3.2081669 12.4311271,3.04433717 12.4044938,2.97331487 C11.9178364,1.67556173 10.0821637,1.67556171 9.59550623,2.97331484 C9.56887287,3.04433715 9.49719736,3.20816688 9.38056637,3.43209837 C9.18046847,3.81628634 8.93514713,4.20110413 8.648329,4.55411106 C7.89344255,5.48320208 7.02134606,6 6,6 C3.40167626,6 2.20207011,4.20059077 3.65233192,2.4602766 C4.18267804,1.82386125 4.09669195,0.878014202 3.4602766,0.347668081 C2.82386125,-0.182678041 1.8780142,-0.0966919453 1.34766808,0.539723401 C-1.92429233,4.4660759 1.09832374,9 6,9 Z" id="mouth"/></g><path d="M34,18 C34,8.61115925 26.3888407,0 17,0 C7.61115925,0 0,8.61115925 0,18 C0,27.3888407 6.5,34 17,34 C27.5,34 34,27.3888407 34,18 Z M3,18 C3,10.0271808 9.49904295,3 17,3 C24.5009571,3 31,10.0271808 31,18 C31,25.884059 25.6829523,31 17,31 C8.31704773,31 3,25.884059 3,18 Z" id="circle" fill="#2E0B0B"/></g></g></svg>
