<svg id="Calque_1" data-name="Calque 1" xmlns="http://www.w3.org/2000/svg" viewBox="0 0 589.89 175.72"><defs><style>.cls-1{fill:#ffd000;}.cls-2{fill:#fff;}.cls-3{fill:#282618;}</style></defs><path class="cls-1" d="M442.52,171,414.29,35.43A6,6,0,0,1,419,28.36L554.47.13a6,6,0,0,1,7.07,4.64l28.23,135.54a6,6,0,0,1-4.64,7.07L449.59,175.61A6,6,0,0,1,442.52,171Z" transform="translate(0 -0.01)"/><path class="cls-2" d="M0,53H22.21l4.46,52.7L45.29,53H67.5l-7,17.64,4.79,35.06L84.45,53h22.21L74.54,132.68H50l-3.81-26.24-10,26.24H10Z" transform="translate(0 -0.01)"/><path class="cls-2" d="M130.34,53q20.58,0,33.1,1.74l-2.83,17.75h-26.9c-3.33,0-5.37,1.27-6.1,3.81a17.79,17.79,0,0,0-.44,2.29l-.65,4.36,26.79,1.2-2.83,17.53-27.11,1-.87,5.23c-.44,2.83.07,4.49,1.52,5a11.76,11.76,0,0,0,4.36.65h25.81l-2.83,17.64a266.94,266.94,0,0,1-27.11,1.7l-5.55.11h-2.18a23,23,0,0,1-4.68-.65Q99.95,129.75,100,118a28.65,28.65,0,0,1,.33-4.14l6.86-43.45q1.74-11.1,9-14.59A31.71,31.71,0,0,1,130.34,53Z" transform="translate(0 -0.01)"/><path class="cls-2" d="M204.82,53Q217,53,222,59.5a19.48,19.48,0,0,1,3.7,12.09q0,9.36-5.12,15A14.14,14.14,0,0,1,211,91.27a12.08,12.08,0,0,1,8.93,6.6,19.5,19.5,0,0,1,2.29,9.58,35,35,0,0,1-1.74,11.11,22.51,22.51,0,0,1-3.81,7.57,22.06,22.06,0,0,1-4.08,3.7,14.59,14.59,0,0,1-5.61,2,94.4,94.4,0,0,1-14.26.87H158.65L171.28,53h33.54Zm-10.35,61.9a5,5,0,0,0,4.36-2q2.4-3,2.4-8.28t-4.36-5.23H185l-2.4,15.46h11.87Zm4-32.23a5.34,5.34,0,0,0,3.92-1.52,8.18,8.18,0,0,0,2.07-5.88c0-2.9-1.38-4.36-4.14-4.36H189.57l-1.85,11.76Z" transform="translate(0 -0.01)"/><path class="cls-2" d="M222.57,132.68,243.69,53h29.4l-.33,44.75L286.48,53h29.94l-4,79.71h-20.8l2.18-43.45-13.75,43.45H255.33l-.11-43.45L244,132.68Z" transform="translate(0 -0.01)"/><path class="cls-2" d="M316.54,132.68,329.17,53h21.12l-12.63,79.71Z" transform="translate(0 -0.01)"/><path class="cls-2" d="M394.28,53Q416.95,53,417,81.72A115.41,115.41,0,0,1,415.53,98a86.32,86.32,0,0,1-4,16.93,27.34,27.34,0,0,1-6.81,11,22.56,22.56,0,0,1-9,5.28,44.38,44.38,0,0,1-12.14,1.42H347.23L359.86,53Zm-11.76,61.9q5.12,0,7.73-5t4.46-16.82a62.37,62.37,0,0,0,1.31-10q0-8.71-2.5-10.89c-1.09-.87-2.79-1.31-5.12-1.31H378.16l-7,44Z" transform="translate(0 -0.01)"/><path class="cls-2" d="M417.59,132.68,430.22,53h21.12l-12.63,79.71Z" transform="translate(0 -0.01)"/><path class="cls-3" d="M454.84,114.71h12.3c1.6,0,2.4.65,2.4,2a3.24,3.24,0,0,1-.11.76l-2.07,12.74a2.76,2.76,0,0,1-3,2.51H452c-1.74,0-2.5-.83-2.29-2.5l2.07-12.74a2.76,2.76,0,0,1,2.72-2.78Z" transform="translate(0 -0.01)"/><path class="cls-3" d="M471.39,162.08l13.83-87.21h21.12l-9.25,58.26q-.87,6-1.74,10a72.14,72.14,0,0,1-2.89,9.53,36.26,36.26,0,0,1-5,9.42ZM491.31,51.45h16.33c1.45,0,2.18.65,2.18,2a3.24,3.24,0,0,1-.11.76l-2.07,12.66A2.56,2.56,0,0,1,505,69.38H488.48c-1.74,0-2.5-.83-2.29-2.5l2.07-12.74a2.76,2.76,0,0,1,2.82-2.69Z" transform="translate(0 -0.01)"/><path class="cls-3" d="M533.34,116.78a2.13,2.13,0,0,0,2.4-1.82v0c.36-1.67-.22-2.5-1.74-2.5H523.65q-7.74,0-11.87-5.23a14.84,14.84,0,0,1-3-9.58,25.81,25.81,0,0,1,.33-3.92l.87-5q2.28-14.37,17.64-14.37,20.48,0,25.64.93t6.48,3l-2,12.41H533.45a3.2,3.2,0,0,0-2.07.44,3.15,3.15,0,0,0-.65,1.63,4.43,4.43,0,0,0-.11,1.58.68.68,0,0,0,.54.49,5,5,0,0,0,1.63.22h10.89q8.49,0,11.76,5.23a16.61,16.61,0,0,1,2.4,8.82,22.11,22.11,0,0,1-.33,3.81l-1,6.42q-2.18,13.94-16.77,13.94h-6q-4.74,0-8.22-.05c-2.32,0-5.08-.16-8.28-.38q-8.72-.54-11-3.59l2-12.41H533.4Z" transform="translate(0 -0.01)"/></svg>