<?xml version="1.0" encoding="utf-8"?>

<svg version="1.1" id="Calque_1" xmlns="http://www.w3.org/2000/svg" xmlns:xlink="http://www.w3.org/1999/xlink" x="0px" y="0px"
	 viewBox="0 0 650 250" style="enable-background:new 0 0 650 250;" xml:space="preserve">
<style type="text/css">
	.st0{fill:#FFCF00;}
	.st1{enable-background:new    ;}
	.st2{fill:#FFFFFF;}
	.st3{fill:#282517;}
</style>
<g>
	<g>
		<path class="st0" d="M472.7,208.1L444.5,72.6c-0.7-3.2,1.4-6.4,4.6-7.1l135.5-28.2c3.2-0.7,6.4,1.4,7.1,4.6L620,177.4
			c0.7,3.2-1.4,6.4-4.6,7.1l-135.5,28.2C476.5,213.4,473.4,211.3,472.7,208.1z"/>
	</g>
	<g class="st1">
		<path class="st2" d="M30.2,90.1h22.2l4.5,52.7l18.6-52.7h22.2l-7,17.6l4.8,35.1l19.2-52.7h22.2l-32.1,79.7H80.2l-3.8-26.2
			l-10,26.2H40.1L30.2,90.1z"/>
		<path class="st2" d="M160.5,90.1c13.7,0,24.8,0.6,33.1,1.7l-2.8,17.7h-26.9c-3.3,0-5.4,1.3-6.1,3.8c-0.1,0.5-0.3,1.3-0.4,2.3
			l-0.7,4.4l26.8,1.2l-2.8,17.5l-27.1,1l-0.9,5.2c-0.4,2.8,0.1,4.5,1.5,5c1.1,0.4,2.5,0.7,4.4,0.7h25.8l-2.8,17.6
			c-7.5,0.9-16.5,1.5-27.1,1.7l-5.6,0.1c-0.3,0-1,0-2.2,0c-1.2,0-2.7-0.2-4.7-0.7c-7.9-1.7-11.9-6.5-11.9-14.4
			c0-1.3,0.1-2.7,0.3-4.1l6.9-43.4c1.2-7.4,4.2-12.3,9-14.6C150.2,91,154.9,90.1,160.5,90.1z"/>
		<path class="st2" d="M235,90.1c8.1,0,13.9,2.2,17.2,6.5c2.5,3.3,3.7,7.3,3.7,12.1c0,6.2-1.7,11.3-5.1,15c-2.6,2.8-5.8,4.4-9.6,4.7
			c3.9,0.7,6.9,2.8,8.9,6.5c1.5,2.8,2.3,6,2.3,9.6c0,3.9-0.6,7.6-1.7,11.1c-1.2,3.5-2.4,6-3.8,7.6c-1.4,1.6-2.7,2.8-4.1,3.7
			c-1.3,0.9-3.2,1.6-5.6,2c-3.7,0.6-8.5,0.9-14.3,0.9h-34.1l12.6-79.7H235z M224.7,152c2,0,3.4-0.7,4.4-2c1.6-2,2.4-4.8,2.4-8.3
			s-1.5-5.2-4.4-5.2h-11.9l-2.4,15.5H224.7z M228.7,119.7c1.6,0,2.9-0.5,3.9-1.5c1.4-1.5,2.1-3.4,2.1-5.9c0-2.9-1.4-4.4-4.1-4.4
			h-10.8l-1.9,11.8H228.7z"/>
		<path class="st2" d="M252.7,169.8l21.1-79.7h29.4l-0.3,44.8l13.7-44.8h29.9l-4,79.7h-20.8l2.2-43.4l-13.7,43.4h-24.7l-0.1-43.4
			l-11.3,43.4H252.7z"/>
		<path class="st2" d="M346.7,169.8l12.6-79.7h21.1l-12.6,79.7H346.7z"/>
		<path class="st2" d="M424.5,90.1c15.1,0,22.6,9.6,22.6,28.7c0,4.4-0.5,9.8-1.4,16.3c-0.9,6.5-2.3,12.1-4,16.9s-4,8.5-6.8,11.1
			c-2.8,2.6-5.8,4.3-9,5.3c-3.2,0.9-7.3,1.4-12.1,1.4h-36.3l12.6-79.7H424.5z M412.7,152c3.4,0,6-1.7,7.7-5
			c1.7-3.3,3.2-8.9,4.5-16.8c0.9-4.6,1.3-8,1.3-10c0-5.8-0.8-9.4-2.5-10.9c-1.1-0.9-2.8-1.3-5.1-1.3h-10.2l-7,44H412.7z"/>
		<path class="st2" d="M447.8,169.8l12.6-79.7h21.1l-12.6,79.7H447.8z"/>
	</g>
	<g class="st1">
		<path class="st3" d="M485,151.8h12.3c1.6,0,2.4,0.7,2.4,2c0,0.2,0,0.5-0.1,0.8l-2.1,12.7c-0.3,1.7-1.3,2.5-3,2.5h-12.3
			c-1.7,0-2.5-0.8-2.3-2.5l2.1-12.7C482.2,152.8,483.2,151.8,485,151.8z"/>
		<path class="st3" d="M501.6,199.2l13.8-87.2h21.1l-9.3,58.3c-0.6,4-1.2,7.3-1.7,10c-0.6,2.7-1.5,5.9-2.9,9.5c-1.3,3.7-3,6.8-5,9.4
			H501.6z M521.5,88.6h16.3c1.5,0,2.2,0.7,2.2,2c0,0.2,0,0.5-0.1,0.8l-2.1,12.7c-0.2,1.7-1.2,2.5-2.8,2.5h-16.3
			c-1.7,0-2.5-0.8-2.3-2.5l2.1-12.7C518.7,89.5,519.7,88.6,521.5,88.6z"/>
		<path class="st3" d="M563.5,153.9c1.4,0,2.2-0.6,2.4-1.9c0.4-1.7-0.2-2.5-1.7-2.5h-10.3c-5.2,0-9.1-1.7-11.9-5.2
			c-2-2.5-3-5.7-3-9.6c0-1.2,0.1-2.5,0.3-3.9l0.9-5c1.5-9.6,7.4-14.4,17.6-14.4c13.6,0,22.2,0.3,25.6,0.9c3.4,0.6,5.6,1.6,6.5,3
			l-2,12.4h-24.3c-1.1,0-1.8,0.1-2.1,0.4c-0.3,0.3-0.5,0.8-0.7,1.6c-0.1,0.8-0.2,1.3-0.1,1.6c0.1,0.3,0.3,0.4,0.5,0.5
			c0.4,0.1,1,0.2,1.6,0.2h10.9c5.7,0,9.6,1.7,11.8,5.2c1.6,2.6,2.4,5.6,2.4,8.8c0,1.2-0.1,2.5-0.3,3.8l-1,6.4
			c-1.5,9.3-7,13.9-16.8,13.9c-0.9,0-2.9,0-6,0c-3.2,0-5.9,0-8.2-0.1c-2.3,0-5.1-0.2-8.3-0.4c-5.8-0.4-9.5-1.6-11-3.6l2-12.4H563.5z
			"/>
	</g>
</g>
</svg>
