<?xml version="1.0" encoding="utf-8"?>

<svg version="1.1" id="Calque_1" xmlns="http://www.w3.org/2000/svg" xmlns:xlink="http://www.w3.org/1999/xlink" x="0px" y="0px"
	 viewBox="0 0 650 250" style="enable-background:new 0 0 650 250;" xml:space="preserve">
<style type="text/css">
	.st0{fill:#FFD000;}
	.st1{fill:#282618;}
	.st2{fill:#FFFFFF;}
</style>
<g>
	<g>
		<path class="st0" d="M472.57,208.11L444.34,72.56c-0.67-3.23,1.4-6.4,4.64-7.07l135.54-28.23c3.23-0.67,6.4,1.4,7.07,4.64
			l28.23,135.54c0.67,3.23-1.4,6.4-4.64,7.07l-135.54,28.23C476.41,213.42,473.24,211.34,472.57,208.11z"/>
	</g>
	<g>
		<path class="st1" d="M30.05,90.1h22.21l4.46,52.7l18.62-52.7h22.21l-6.97,17.64l4.79,35.06l19.16-52.7h22.21l-32.12,79.71H80.03
			l-3.81-26.24L66.2,169.81H39.96L30.05,90.1z"/>
		<path class="st1" d="M160.39,90.1c13.72,0,24.75,0.58,33.1,1.74l-2.83,17.75h-26.9c-3.34,0-5.37,1.27-6.1,3.81
			c-0.15,0.51-0.29,1.27-0.44,2.29l-0.65,4.36l26.79,1.2l-2.83,17.53l-27.11,0.98l-0.87,5.23c-0.44,2.83,0.07,4.5,1.52,5.01
			c1.09,0.44,2.54,0.65,4.36,0.65h25.81l-2.83,17.64c-7.48,0.94-16.52,1.52-27.11,1.74l-5.55,0.11c-0.29,0-1.02,0-2.18,0
			c-1.16,0-2.72-0.22-4.68-0.65c-7.91-1.74-11.87-6.53-11.87-14.37c0-1.31,0.11-2.68,0.33-4.14l6.86-43.45
			c1.16-7.4,4.17-12.27,9.04-14.59C150.08,91.05,154.8,90.1,160.39,90.1z"/>
		<path class="st1" d="M234.87,90.1c8.13,0,13.86,2.18,17.2,6.53c2.47,3.27,3.7,7.3,3.7,12.09c0,6.24-1.71,11.25-5.12,15.03
			c-2.61,2.83-5.81,4.39-9.58,4.68c3.92,0.65,6.9,2.83,8.93,6.53c1.52,2.76,2.29,5.95,2.29,9.58c0,3.92-0.58,7.62-1.74,11.11
			c-1.16,3.48-2.43,6.01-3.81,7.57c-1.38,1.56-2.74,2.8-4.08,3.7c-1.34,0.91-3.21,1.58-5.61,2.01c-3.7,0.58-8.46,0.87-14.26,0.87
			H188.7l12.63-79.71H234.87z M224.52,151.95c1.96,0,3.41-0.65,4.36-1.96c1.6-2.03,2.4-4.79,2.4-8.28s-1.45-5.23-4.36-5.23h-11.87
			l-2.4,15.46H224.52z M228.55,119.72c1.6,0,2.9-0.51,3.92-1.52c1.38-1.45,2.07-3.41,2.07-5.88c0-2.9-1.38-4.36-4.14-4.36h-10.78
			l-1.85,11.76H228.55z"/>
		<path class="st1" d="M252.62,169.81l21.12-79.71h29.4l-0.33,44.75l13.72-44.75h29.94l-4.03,79.71h-20.8l2.18-43.45l-13.72,43.45
			h-24.72l-0.11-43.45l-11.32,43.45H252.62z"/>
		<path class="st1" d="M346.59,169.81l12.63-79.71h21.12l-12.63,79.71H346.59z"/>
		<path class="st1" d="M424.33,90.1c15.1,0,22.65,9.58,22.65,28.75c0,4.36-0.47,9.78-1.42,16.28c-0.94,6.5-2.29,12.14-4.03,16.93
			s-4.01,8.48-6.81,11.05c-2.79,2.58-5.81,4.34-9.04,5.28c-3.23,0.94-7.28,1.42-12.14,1.42h-36.26l12.63-79.71H424.33z
			 M412.57,151.95c3.41,0,5.99-1.65,7.73-4.95c1.74-3.3,3.23-8.91,4.46-16.82c0.87-4.64,1.31-7.98,1.31-10.02
			c0-5.81-0.84-9.44-2.5-10.89c-1.09-0.87-2.79-1.31-5.12-1.31h-10.24l-6.97,43.99H412.57z"/>
		<path class="st1" d="M447.64,169.81l12.63-79.71h21.12l-12.63,79.71H447.64z"/>
	</g>
	<g>
		<path class="st2" d="M484.89,151.84h12.3c1.6,0,2.4,0.65,2.4,1.96c0,0.22-0.04,0.47-0.11,0.76l-2.07,12.74
			c-0.29,1.67-1.31,2.5-3.05,2.5h-12.3c-1.74,0-2.5-0.83-2.29-2.5l2.07-12.74C482.05,152.75,483.07,151.84,484.89,151.84z"/>
		<path class="st2" d="M501.44,199.21l13.83-87.22h21.12l-9.25,58.26c-0.58,3.99-1.16,7.33-1.74,10.02
			c-0.58,2.69-1.54,5.86-2.89,9.53c-1.34,3.67-3,6.81-4.96,9.42H501.44z M521.36,88.58h16.33c1.45,0,2.18,0.65,2.18,1.96
			c0,0.22-0.04,0.47-0.11,0.76l-2.07,12.74c-0.22,1.67-1.16,2.5-2.83,2.5h-16.33c-1.74,0-2.5-0.83-2.29-2.5l2.07-12.74
			C518.53,89.49,519.55,88.58,521.36,88.58z"/>
		<path class="st2" d="M563.39,153.91c1.38,0,2.18-0.62,2.4-1.85c0.36-1.67-0.22-2.5-1.74-2.5H553.7c-5.16,0-9.11-1.74-11.87-5.23
			c-2.03-2.54-3.05-5.73-3.05-9.58c0-1.23,0.11-2.54,0.33-3.92l0.87-5.01c1.52-9.58,7.4-14.37,17.64-14.37
			c13.65,0,22.19,0.31,25.64,0.93c3.45,0.62,5.61,1.62,6.48,2.99l-1.96,12.41H563.5c-1.09,0-1.78,0.15-2.07,0.44
			c-0.29,0.29-0.51,0.84-0.65,1.63c-0.15,0.8-0.18,1.33-0.11,1.58c0.07,0.25,0.25,0.42,0.54,0.49c0.44,0.15,0.98,0.22,1.63,0.22
			h10.89c5.66,0,9.58,1.74,11.76,5.23c1.6,2.61,2.4,5.55,2.4,8.82c0,1.24-0.11,2.5-0.33,3.81l-0.98,6.42
			c-1.45,9.29-7.04,13.94-16.77,13.94c-0.87,0-2.88,0-6.04,0s-5.9-0.02-8.22-0.05c-2.32-0.04-5.08-0.16-8.28-0.38
			c-5.81-0.36-9.47-1.56-11-3.59l1.96-12.41H563.39z"/>
	</g>
</g>
</svg>
