<svg id="Calque_1" data-name="Calque 1" xmlns="http://www.w3.org/2000/svg" viewBox="0 0 589.9 175.73"><defs><style>.cls-1{fill:#ffd000;}.cls-2{fill:#fff;}.cls-3{fill:#282618;}</style></defs><path class="cls-1" d="M472.57,208.11,444.34,72.56A6,6,0,0,1,449,65.49L584.52,37.26a6,6,0,0,1,7.07,4.64l28.23,135.54a6,6,0,0,1-4.64,7.07L479.64,212.74A6,6,0,0,1,472.57,208.11Z" transform="translate(-30.05 -37.13)"/><path class="cls-2" d="M30.05,90.1H52.26l4.46,52.7L75.34,90.1H97.55l-7,17.64,4.79,35.06,19.16-52.7h22.21l-32.12,79.71H80l-3.81-26.24-10,26.24H40Z" transform="translate(-30.05 -37.13)"/><path class="cls-2" d="M160.39,90.1q20.58,0,33.1,1.74l-2.83,17.75h-26.9q-5,0-6.1,3.81a18.37,18.37,0,0,0-.44,2.29l-.65,4.36,26.79,1.2-2.83,17.53-27.11,1-.87,5.23q-.66,4.24,1.52,5a11.89,11.89,0,0,0,4.36.65h25.81l-2.83,17.64A266.31,266.31,0,0,1,154.3,170l-5.55.11h-2.18a23.19,23.19,0,0,1-4.68-.65Q130,166.88,130,155.12a27.74,27.74,0,0,1,.33-4.14l6.86-43.45q1.74-11.1,9-14.59A31.78,31.78,0,0,1,160.39,90.1Z" transform="translate(-30.05 -37.13)"/><path class="cls-2" d="M234.87,90.1q12.19,0,17.2,6.53a19.48,19.48,0,0,1,3.7,12.09q0,9.36-5.12,15a14.1,14.1,0,0,1-9.58,4.68A12.07,12.07,0,0,1,250,135a19.53,19.53,0,0,1,2.29,9.58,35,35,0,0,1-1.74,11.11,22.34,22.34,0,0,1-3.81,7.57,21.88,21.88,0,0,1-4.08,3.7,14.62,14.62,0,0,1-5.61,2,95.27,95.27,0,0,1-14.26.87H188.7l12.63-79.71h33.54ZM224.52,152a5,5,0,0,0,4.36-2q2.4-3,2.4-8.28t-4.36-5.23H215.05l-2.4,15.46h11.87Zm4-32.23a5.33,5.33,0,0,0,3.92-1.52,8.18,8.18,0,0,0,2.07-5.88c0-2.9-1.38-4.36-4.14-4.36H219.62l-1.85,11.76Z" transform="translate(-30.05 -37.13)"/><path class="cls-2" d="M252.62,169.81,273.74,90.1h29.4l-.33,44.75L316.53,90.1h29.94l-4,79.71h-20.8l2.18-43.45L310.1,169.81H285.38l-.11-43.45L274,169.81Z" transform="translate(-30.05 -37.13)"/><path class="cls-2" d="M346.59,169.81,359.22,90.1h21.12l-12.63,79.71Z" transform="translate(-30.05 -37.13)"/><path class="cls-2" d="M424.33,90.1Q447,90.1,447,118.85a116,116,0,0,1-1.42,16.28,85.85,85.85,0,0,1-4,16.93,27.4,27.4,0,0,1-6.81,11.05,22.59,22.59,0,0,1-9,5.28,44.18,44.18,0,0,1-12.14,1.42H377.28L389.91,90.1ZM412.57,152q5.12,0,7.73-4.95t4.46-16.82a62.28,62.28,0,0,0,1.31-10q0-8.72-2.5-10.89c-1.09-.87-2.79-1.31-5.12-1.31H408.21l-7,44Z" transform="translate(-30.05 -37.13)"/><path class="cls-2" d="M447.64,169.81,460.27,90.1h21.12l-12.63,79.71Z" transform="translate(-30.05 -37.13)"/><path class="cls-3" d="M484.89,151.84h12.3c1.6,0,2.4.65,2.4,2a3.31,3.31,0,0,1-.11.76l-2.07,12.74a2.76,2.76,0,0,1-3.05,2.5h-12.3c-1.74,0-2.5-.83-2.29-2.5l2.07-12.74A2.75,2.75,0,0,1,484.89,151.84Z" transform="translate(-30.05 -37.13)"/><path class="cls-3" d="M501.44,199.21,515.27,112h21.12l-9.25,58.26q-.87,6-1.74,10a72.59,72.59,0,0,1-2.89,9.53,36.36,36.36,0,0,1-5,9.42H501.44ZM521.36,88.58h16.33c1.45,0,2.18.65,2.18,2a3.31,3.31,0,0,1-.11.76L537.69,104a2.56,2.56,0,0,1-2.83,2.5H518.53c-1.74,0-2.5-.83-2.29-2.5l2.07-12.74A2.76,2.76,0,0,1,521.36,88.58Z" transform="translate(-30.05 -37.13)"/><path class="cls-3" d="M563.39,153.91a2.13,2.13,0,0,0,2.4-1.85c.36-1.67-.22-2.5-1.74-2.5H553.7q-7.74,0-11.87-5.23a14.86,14.86,0,0,1-3.05-9.58,25,25,0,0,1,.33-3.92l.87-5q2.28-14.37,17.64-14.37,20.48,0,25.64.93t6.48,3l-2,12.41H563.5a3.2,3.2,0,0,0-2.07.44,3.13,3.13,0,0,0-.65,1.63,4.32,4.32,0,0,0-.11,1.58.68.68,0,0,0,.54.49,5.1,5.1,0,0,0,1.63.22h10.89q8.49,0,11.76,5.23a16.54,16.54,0,0,1,2.4,8.82,22.91,22.91,0,0,1-.33,3.81l-1,6.42q-2.18,13.94-16.77,13.94h-6q-4.74,0-8.22-.05c-2.32,0-5.08-.16-8.28-.38q-8.71-.54-11-3.59l2-12.41h25.16Z" transform="translate(-30.05 -37.13)"/></svg>