<svg width="2079" height="1605" viewBox="0 0 2079 1605" fill="none" xmlns="http://www.w3.org/2000/svg">
<path d="M58.0774 1093.99V1173.04H174.496V1219.22H6.30078V933.73H165.667V979.917H58.0774V1049.7H148.639V1094.11L58.0774 1093.99Z" fill="white"/>
<path d="M310.787 933.607C325.489 933.471 340.144 935.305 354.365 939.063C366.729 942.296 378.313 948.015 388.42 955.875C397.954 963.559 405.54 973.409 410.556 984.614C416.085 997.68 418.773 1011.78 418.439 1025.98V1126.73C418.81 1141.02 415.805 1155.19 409.673 1168.09C404.05 1179.44 395.838 1189.29 385.708 1196.83C374.982 1204.67 362.867 1210.37 350.013 1213.64C335.698 1217.36 320.966 1219.19 306.183 1219.1H216.883V933.607H310.787ZM366.726 1025.85C366.875 1018.65 365.455 1011.5 362.563 1004.92C359.869 999.232 355.87 994.274 350.896 990.451C345.568 986.534 339.491 983.769 333.049 982.33C325.694 980.577 318.156 979.725 310.598 979.793H267.776V1173.04H306.057C313.801 1173.08 321.525 1172.23 329.076 1170.5C335.978 1169.04 342.546 1166.28 348.437 1162.38C353.893 1158.62 358.441 1153.68 361.744 1147.92C365.21 1141.34 366.926 1133.98 366.726 1126.54V1025.85Z" fill="white"/>
<path d="M621.135 935.699C633.933 939.627 645.934 945.814 656.578 953.97C666.775 961.809 675.255 971.679 681.489 982.963C687.869 994.882 691.084 1008.26 690.822 1021.79V1130.47C691.178 1143.83 688.359 1157.09 682.601 1169.14C676.843 1181.19 668.311 1191.68 657.713 1199.75C647.074 1207.81 635.033 1213.82 622.207 1217.45C608.293 1221.38 593.902 1223.35 579.449 1223.28H573.143C558.461 1223.36 543.838 1221.4 529.691 1217.45C516.83 1213.88 504.73 1207.97 493.996 1200C483.862 1192.29 475.585 1182.38 469.779 1171.01C463.605 1158.41 460.533 1144.51 460.823 1130.47V1021.79C460.554 1008.13 463.721 994.62 470.031 982.519C476.096 971.211 484.505 961.345 494.69 953.589C505.344 945.382 517.428 939.25 530.321 935.508C544.064 931.32 558.342 929.183 572.701 929.164H579.386C593.552 929.194 607.63 931.398 621.135 935.699ZM639.109 1022.23C639.256 1015.21 637.443 1008.29 633.875 1002.25C630.394 996.54 625.778 991.615 620.315 987.785C614.534 983.774 608.145 980.731 601.396 978.776C594.289 976.676 586.92 975.608 579.512 975.604H572.827C565.353 975.589 557.91 976.57 550.691 978.522C543.784 980.326 537.235 983.309 531.33 987.341C525.775 991.081 521.12 996.023 517.708 1001.81C514.289 1007.89 512.567 1014.8 512.726 1021.79V1130.47C512.517 1137.81 514.235 1145.07 517.708 1151.53C521.011 1157.31 525.584 1162.26 531.078 1166C536.869 1169.84 543.266 1172.67 549.998 1174.37C557.529 1176.23 565.261 1177.15 573.016 1177.1H579.323C586.911 1177.13 594.474 1176.21 601.837 1174.37C608.618 1172.72 615.034 1169.82 620.757 1165.8C626.097 1161.87 630.564 1156.85 633.875 1151.09C637.333 1144.78 639.074 1137.67 638.92 1130.47L639.109 1022.23Z" fill="white"/>
<path d="M909.091 933.604H960.867V1127.61C961.2 1142.02 958.2 1156.31 952.101 1169.36C946.448 1180.97 938.255 1191.14 928.137 1199.11C917.482 1207.35 905.37 1213.49 892.442 1217.19C878.212 1221.42 863.449 1223.56 848.611 1223.54C833.566 1223.57 818.594 1221.43 804.15 1217.19C791.154 1213.52 778.974 1207.38 768.266 1199.11C758.13 1191.14 749.916 1180.97 744.238 1169.36C738.19 1156.3 735.212 1142.01 735.535 1127.61V933.604H787.249V1127.61C787.081 1135.23 788.724 1142.78 792.042 1149.63C795.103 1155.74 799.528 1161.06 804.97 1165.17C810.806 1169.41 817.402 1172.47 824.394 1174.18C832.164 1176.17 840.153 1177.15 848.17 1177.1C856.145 1177.15 864.094 1176.17 871.819 1174.18C878.804 1172.37 885.377 1169.22 891.18 1164.92C896.69 1160.81 901.198 1155.49 904.361 1149.37C907.648 1142.6 909.27 1135.14 909.091 1127.61V933.604Z" fill="white"/>
<path d="M1605.65 933.607C1620.38 933.471 1635.05 935.306 1649.29 939.063C1661.63 942.304 1673.2 948.023 1683.29 955.875C1692.82 963.559 1700.41 973.409 1705.42 984.614C1710.97 997.675 1713.68 1011.78 1713.37 1025.98V1126.73C1713.71 1141.01 1710.7 1155.18 1704.6 1168.09C1698.95 1179.44 1690.72 1189.29 1680.57 1196.83C1669.87 1204.67 1657.78 1210.37 1644.94 1213.64C1630.52 1217.37 1615.68 1219.21 1600.8 1219.1H1512V933.607H1605.65ZM1661.59 1025.85C1661.77 1018.65 1660.35 1011.5 1657.43 1004.92C1654.78 999.222 1650.8 994.258 1645.82 990.451C1640.47 986.545 1634.37 983.781 1627.91 982.33C1620.56 980.574 1613.02 979.722 1605.46 979.793H1562.45V1173.04H1600.67C1608.43 1173.08 1616.18 1172.23 1623.75 1170.5C1630.63 1169.02 1637.17 1166.27 1643.05 1162.38C1648.52 1158.64 1653.08 1153.7 1656.36 1147.92C1659.85 1141.35 1661.57 1133.98 1661.34 1126.54L1661.59 1025.85Z" fill="white"/>
<path d="M1144.44 931.508H1081.44L987.535 1219.09H1042.65L1112.34 985.688L1148.67 1109.46H1111.08L1098.28 1151.46H1161.6L1181.15 1219.09H1235.44L1144.44 931.508Z" fill="white"/>
<path d="M1411.58 1097.73C1426.68 1093.99 1440.33 1085.82 1450.81 1074.26C1460.65 1062.24 1465.71 1046.98 1465 1031.43V1009.61C1465 983.259 1457.14 964.015 1441.41 951.876C1425.69 939.737 1404.67 933.647 1378.35 933.604H1269.88V1219.1H1321.59V979.791H1377.97C1386.98 979.425 1395.85 982.081 1403.19 987.34C1406.56 990.035 1409.22 993.509 1410.95 997.464C1412.69 1001.42 1413.44 1005.74 1413.16 1010.05V1031.05C1413.41 1035 1412.55 1038.94 1410.67 1042.42C1408.8 1045.9 1405.99 1048.77 1402.56 1050.72C1395.27 1054.98 1386.97 1057.17 1378.54 1057.06H1331.68L1357.85 1103.57L1420.92 1219.16H1478.49L1411.58 1097.73Z" fill="white"/>
<path d="M153.501 901.501H26.3613V883.8L153.501 877.583V901.501Z" fill="white"/>
<path d="M71.2602 1314.19L144.605 1462.01L219.968 1314.19H284.105V1599.68H238.068V1372.56L156.083 1546.84H131.74L52.1515 1372.56V1599.81H6.05078V1314.32L71.2602 1314.19Z" fill="white"/>
<path d="M488.509 1316.29C501.35 1320.21 513.395 1326.39 524.078 1334.56C534.272 1342.33 542.754 1352.14 548.988 1363.37C555.409 1375.27 558.647 1388.65 558.385 1402.19V1511.19C558.773 1524.57 555.956 1537.85 550.171 1549.91C544.387 1561.96 535.805 1572.44 525.15 1580.47C514.468 1588.53 502.383 1594.51 489.518 1598.1C475.549 1602.09 461.091 1604.08 446.57 1604H440.264C425.535 1604.09 410.867 1602.11 396.686 1598.1C383.79 1594.56 371.649 1588.67 360.865 1580.72C350.693 1573.03 342.391 1563.12 336.585 1551.73C330.375 1539.14 327.281 1525.23 327.566 1511.19V1402.38C327.267 1388.72 330.436 1375.2 336.774 1363.11C342.895 1351.81 351.319 1341.93 361.495 1334.12C372.244 1325.97 384.384 1319.86 397.316 1316.1C411.124 1311.92 425.465 1309.78 439.886 1309.76H446.57C460.798 1309.79 474.937 1312 488.509 1316.29ZM506.482 1402.83C506.643 1395.8 504.829 1388.88 501.248 1382.84C497.745 1377.13 493.107 1372.21 487.626 1368.38C481.848 1364.36 475.458 1361.32 468.706 1359.37C461.556 1357.27 454.145 1356.2 446.696 1356.2H439.886C432.387 1356.2 424.922 1357.2 417.687 1359.18C410.722 1360.96 404.11 1363.92 398.136 1367.93C392.606 1371.73 387.959 1376.69 384.514 1382.46C381.094 1388.53 379.372 1395.41 379.532 1402.38V1511.19C379.331 1518.5 381.049 1525.75 384.514 1532.19C387.788 1538.01 392.393 1542.97 397.947 1546.65C403.834 1550.57 410.369 1553.41 417.245 1555.03C424.774 1556.91 432.506 1557.85 440.264 1557.82H446.57C454.203 1557.83 461.807 1556.89 469.211 1555.03C476.007 1553.42 482.432 1550.52 488.13 1546.46C493.548 1542.59 498.049 1537.57 501.311 1531.74C504.805 1525.47 506.548 1518.37 506.356 1511.19L506.482 1402.83Z" fill="white"/>
<path d="M791.967 1314.19H838.068V1599.68H765.984L650.386 1374.08V1599.68H604.285V1314.19H672.206L792.03 1545.57L791.967 1314.19Z" fill="white"/>
<path d="M866.836 1360.44V1314.19H1088.07V1360.82H1002.99V1599.81H951.028V1360.82L866.836 1360.44Z" fill="white"/>
<path d="M1212.3 1314.2C1224.07 1314.08 1235.79 1315.69 1247.11 1318.96C1257.12 1321.88 1266.45 1326.8 1274.54 1333.42C1282.27 1339.95 1288.43 1348.15 1292.58 1357.4C1297.02 1367.88 1299.17 1379.2 1298.89 1390.58V1422.87C1299.11 1433.65 1296.73 1444.32 1291.95 1453.96C1287.43 1462.82 1280.96 1470.52 1273.03 1476.48C1264.88 1482.68 1255.67 1487.3 1245.85 1490.12C1235.09 1493.28 1223.94 1494.84 1212.74 1494.75H1168.59V1599.75H1117.2V1314.26L1212.3 1314.2ZM1247.11 1390.65C1247.36 1386.36 1246.57 1382.08 1244.82 1378.17C1243.06 1374.25 1240.38 1370.83 1237.02 1368.19C1229.89 1362.86 1221.17 1360.13 1212.3 1360.45H1169.16V1448.57H1212.3C1220.71 1448.73 1229.03 1446.72 1236.45 1442.73C1239.93 1440.81 1242.79 1437.93 1244.68 1434.42C1246.57 1430.9 1247.42 1426.92 1247.11 1422.94V1390.65Z" fill="white"/>
<path d="M1380.74 1474.65V1553.69H1497.67V1599.94H1329.09V1314.45H1489.22V1360.7H1380.74V1430.49H1471.68V1474.9L1380.74 1474.65Z" fill="white"/>
<path d="M1516.97 1360.44V1314.19H1738.2V1360.82H1653.13V1599.81H1601.16V1360.82L1516.97 1360.44Z" fill="white"/>
<path d="M1770.55 1314.19H1822.58V1599.68H1770.55V1314.19Z" fill="white"/>
<path d="M1856.71 1360.44V1314.19H2078.01V1360.82H1992.93V1599.81H1940.84V1360.82L1856.71 1360.44Z" fill="white"/>
<path d="M95.6042 609.537C89.1933 609.495 82.8135 610.436 76.6846 612.329C70.9472 614.046 65.549 616.751 60.7291 620.322C56.2308 623.664 52.5614 628.006 50.008 633.011C47.3282 638.513 46.0085 644.586 46.1611 650.711V746.827C45.6307 752.894 46.6568 758.996 49.1412 764.55C51.6257 770.104 55.4853 774.923 60.3508 778.548C70.9827 785.502 83.5003 788.961 96.1718 788.445C108.017 788.563 119.807 786.808 131.11 783.242C141.721 779.864 151.5 774.264 159.805 766.811L179.859 800.816C168.629 811.151 155.282 818.883 140.759 823.465C126.261 827.614 111.245 829.644 96.1718 829.492C83.3724 829.58 70.6276 827.807 58.3326 824.226C47.2703 821.12 36.9213 815.861 27.8721 808.746C19.2865 801.831 12.4021 793.017 7.75428 782.989C2.57311 771.75 0.0271364 759.465 0.31263 747.08V650.902C0.0988955 638.89 2.71373 626.999 7.94347 616.199C12.8607 606.198 19.8494 597.372 28.4397 590.314C37.4731 583.05 47.7852 577.562 58.8372 574.136C70.8303 570.323 83.3419 568.418 95.9196 568.49C104.918 568.402 113.907 569.102 122.785 570.583C130.039 571.731 137.104 573.866 143.786 576.928C150.159 579.917 156.151 583.665 161.634 588.093C167.66 592.988 173.408 598.22 178.85 603.764L153.624 635.041C146.065 627.809 137.581 621.622 128.398 616.643C118.231 611.548 106.955 609.105 95.6042 609.537V609.537Z" fill="white"/>
<path d="M268.213 714.601V784.388H371.577V825.435H222.238V572.236H363.757V613.22H268.213V675.457H348.558V714.601H268.213Z" fill="white"/>
<path d="M507.108 685.547H601.202V798.728C593.066 803.486 585.309 807.737 578.057 811.417C571.022 815.116 563.778 818.4 556.362 821.25C549.11 824.054 541.615 826.178 533.974 827.594C525.471 829.015 516.864 829.716 508.244 829.688C495 829.792 481.803 828.085 469.017 824.613C457.658 821.612 446.962 816.49 437.484 809.513C428.625 802.822 421.453 794.129 416.547 784.137C411.253 772.639 408.663 760.07 408.979 747.403V650.907C408.734 638.552 411.46 626.32 416.925 615.253C422.074 605.165 429.426 596.38 438.43 589.558C447.93 582.489 458.609 577.182 469.963 573.888C482.254 570.278 494.997 568.462 507.802 568.496C523.538 568.387 539.182 570.917 554.092 575.982C568.753 581.157 582.147 589.419 593.382 600.217L572.57 633.778C563.257 626.418 552.906 620.495 541.857 616.204C531.018 611.868 519.467 609.609 507.802 609.543C501.057 609.511 494.336 610.364 487.81 612.08C481.757 613.673 476.034 616.337 470.909 619.947C466.139 623.399 462.178 627.86 459.305 633.017C456.216 638.459 454.647 644.641 454.764 650.907V747.023C454.598 753.634 456.095 760.181 459.116 766.055C461.922 771.136 465.875 775.482 470.657 778.744C475.798 782.185 481.528 784.637 487.558 785.976C494.392 787.488 501.372 788.233 508.37 788.197C516.396 788.276 524.413 787.661 532.334 786.357C540.374 784.633 548.083 781.612 555.164 777.412V722.597H507.045L507.108 685.547Z" fill="white"/>
<path d="M697.49 714.601V784.388H800.853V825.435H651.578V572.236H793.033V613.22H697.49V675.457H777.898V714.601H697.49Z" fill="white"/>
<path d="M929.824 572.236C940.197 572.142 950.525 573.596 960.474 576.55C969.342 579.07 977.605 583.388 984.754 589.238C991.602 595.043 997.056 602.331 1000.71 610.555C1004.71 619.813 1006.67 629.835 1006.45 639.929V668.668C1006.69 677.828 1004.77 686.915 1000.83 695.177C996.895 703.44 991.06 710.642 983.808 716.187C976.604 721.656 968.458 725.743 959.78 728.241C950.276 731.034 940.419 732.423 930.518 732.364H891.607V825.561H845.695V572.236H929.824ZM960.474 640.119C960.688 636.331 959.998 632.546 958.463 629.081C956.927 625.615 954.589 622.57 951.645 620.198C945.349 615.495 937.663 613.059 929.824 613.283H891.607V691.508H929.824C937.23 691.594 944.539 689.805 951.077 686.305C954.153 684.606 956.676 682.05 958.342 678.944C960.009 675.838 960.749 672.314 960.474 668.795V640.119Z" fill="white"/>
<path d="M355.125 541.023H234.797V524.274L355.125 518.438V541.023Z" fill="white"/>
<path d="M1461.84 96.1007V64.3795H1682.57V0.937012H1083.45V475.55V477.961C1098.59 602.689 1361.51 765.863 1414.04 797.33L1461.72 825.816V765.863L1443.3 752.476C1290.56 642.15 1186.82 545.464 1178.43 480.118V96.1007H1461.84Z" fill="white"/>
<path d="M1335.41 159.351V206.679H1461.54V222.92H1650.74V471.805C1645.19 514.565 1578.78 577.817 1478.82 649.951L1461.54 661.751V701.403L1497.61 679.261C1531.98 658.643 1703.84 551.996 1713.74 470.472V468.886V159.351H1335.41Z" fill="white"/>
</svg>
