<?xml version="1.0" encoding="utf-8"?>
<!-- Generator: Adobe Illustrator 20.0.0, SVG Export Plug-In . SVG Version: 6.00 Build 0)  -->
<!DOCTYPE svg PUBLIC "-//W3C//DTD SVG 1.1//EN" "http://www.w3.org/Graphics/SVG/1.1/DTD/svg11.dtd">
<svg version="1.1" id="logo" xmlns="http://www.w3.org/2000/svg" xmlns:xlink="http://www.w3.org/1999/xlink" x="0px" y="0px"
	 viewBox="0 0 666.9 246.6" enable-background="new 0 0 666.9 246.6" xml:space="preserve">
<path id="yellow-square" fill="#FFCF00" d="M472.9,218.8L440.8,64.5c-0.7-3.2,1.4-6.4,4.6-7.1l154.2-32.1c3.2-0.7,6.4,1.4,7.1,4.6
	l32.1,154.2c0.7,3.2-1.4,6.4-4.6,7.1L480,223.4C476.8,224.1,473.6,222,472.9,218.8z"/>
<path id="character10" fill="#FFFFFF" d="M576.6,149.4c1.5,0,2.4-0.7,2.7-2.1c0.4-1.9-0.2-2.8-1.9-2.8h-11.5
	c-5.7,0-10.1-1.9-13.2-5.8c-2.3-2.8-3.4-6.4-3.4-10.6c0-1.4,0.1-2.8,0.4-4.4l1-5.6c1.7-10.6,8.2-16,19.6-16c15.1,0,24.6,0.3,28.5,1
	c3.8,0.7,6.2,1.8,7.2,3.3l-2.2,13.8h-26.9c-1.2,0-2,0.2-2.3,0.5c-0.3,0.3-0.6,0.9-0.7,1.8c-0.2,0.9-0.2,1.5-0.1,1.8
	c0.1,0.3,0.3,0.5,0.6,0.5c0.5,0.2,1.1,0.2,1.8,0.2h12.1c6.3,0,10.6,1.9,13.1,5.8c1.8,2.9,2.7,6.2,2.7,9.8c0,1.4-0.1,2.8-0.4,4.2
	l-1.1,7.1c-1.6,10.3-7.8,15.5-18.6,15.5c-1,0-3.2,0-6.7,0s-6.5,0-9.1-0.1c-2.6,0-5.6-0.2-9.2-0.4c-6.4-0.4-10.5-1.7-12.2-4l2.2-13.8
	H576.6z"/>
<path id="character09" fill="#FFFFFF" d="M507.8,199.7l15.3-96.8h23.4l-10.3,64.7c-0.6,4.4-1.3,8.1-1.9,11.1
	c-0.6,3-1.7,6.5-3.2,10.6c-1.5,4.1-3.3,7.6-5.5,10.5H507.8z M530,76.9h18.1c1.6,0,2.4,0.7,2.4,2.2c0,0.2,0,0.5-0.1,0.8l-2.3,14.1
	c-0.2,1.9-1.3,2.8-3.1,2.8h-18.1c-1.9,0-2.8-0.9-2.5-2.8l2.3-14.1C526.8,77.9,527.9,76.9,530,76.9z"/>
<path id="character08" fill="#FFFFFF" d="M489.5,147.1h13.7c1.8,0,2.7,0.7,2.7,2.2c0,0.2,0,0.5-0.1,0.8l-2.3,14.1
	c-0.3,1.9-1.5,2.8-3.4,2.8h-13.7c-1.9,0-2.8-0.9-2.5-2.8l2.3-14.1C486.3,148.2,487.5,147.1,489.5,147.1z"/>
<path id="character07" fill="#282517" d="M450.6,167.1l10.2-64.2h23.4L474,167.1H450.6z M467.6,76.9h18.1c1.5,0,2.3,0.7,2.3,2.2
	c0,0.2,0,0.5-0.1,0.8l-2.2,14.1c-0.2,1.9-1.3,2.8-3.1,2.8h-18.1c-1.6,0-2.4-0.7-2.4-2.2c0-0.2,0-0.4,0-0.6l2.2-14.1
	C464.5,77.9,465.6,76.9,467.6,76.9z"/>
<path id="character06" fill="#282517" d="M415.2,101.9c6,0,11.2,1.2,15.3,3.6l5.3-33.4h23.4l-15,94.9h-20.1l-2.7-5.9
	c-3.1,2.3-5.8,3.9-8.2,5c-2.4,1.1-5.3,1.6-8.6,1.6c-7,0-11.9-3.5-14.6-10.4c-1.6-3.9-2.4-8.3-2.4-12.9c0-4.7,0.4-9.3,1.3-14
	c1.8-9.9,4.5-17.1,8.2-21.7C401,104.2,407,101.9,415.2,101.9z M416,121.6c-1.1,1.9-2.1,5.3-3,10.2c-0.8,4.9-1.3,8-1.3,9.3
	c0,1.3,0.1,2.6,0.2,3.9c0.1,1.3,0.5,2.2,1,2.8c0.6,0.6,1.5,0.9,2.8,0.9c4.1,0,6.8-0.9,8.2-2.7l4.1-25.6c-0.9-1.2-3.4-1.8-7.6-1.8
	C418.6,118.7,417.2,119.7,416,121.6z"/>
<path id="character05" fill="#282517" d="M353.8,167.1l10.2-64.2h23.4l-10.2,64.2H353.8z M370.8,76.9H389c1.5,0,2.3,0.7,2.3,2.2
	c0,0.2,0,0.5-0.1,0.8L389,94.1c-0.2,1.9-1.3,2.8-3.1,2.8h-18.1c-1.6,0-2.4-0.7-2.4-2.2c0-0.2,0-0.4,0-0.6l2.2-14.1
	C367.7,77.9,368.8,76.9,370.8,76.9z"/>
<path id="character04" fill="#282517" d="M249,167.1l23.4-88.5h32.6l-0.4,49.7l15.2-49.7h33.2l-4.5,88.5h-23.1l2.4-48.2l-15.2,48.2
	h-27.4l-0.1-48.2l-12.6,48.2H249z"/>
<path id="character03" fill="#282517" d="M233.9,101.9c11.4,0,17,6.8,17,20.3c0,5.2-0.5,10.9-1.4,17.1c-0.9,6.2-2.1,11.2-3.6,14.9
	c-1.5,3.7-3.3,6.5-5.6,8.5c-2.3,1.9-4.7,3.3-7.3,4c-2.6,0.7-5.7,1.1-9.2,1.1c-3.6,0-6.4-0.5-8.5-1.6c-2.1-1-4.3-2.7-6.6-5.1
	l-4.5,5.9h-20.1l15-94.9h23.4l-5.2,33.4C222.5,103.2,227.9,101.9,233.9,101.9z M218.6,148.8c1.9,0,3.4-0.9,4.5-2.8
	c1.1-1.9,2-5.2,2.8-10.2c0.8-4.9,1.2-8,1.2-9.3c0-1.3,0-2.6-0.1-3.9c-0.1-1.3-0.4-2.3-1-3c-0.6-0.6-1.5-1-2.8-1
	c-4.1,0-6.8,0.6-8.1,1.8l-4.1,25.6C211.8,148,214.3,148.8,218.6,148.8z"/>
<path id="character02" fill="#282517" d="M157.9,101.7c17.9,0,26.8,6,26.8,18c0,5.2-0.9,9.5-2.6,13.2c-1.7,3.6-3.9,6.2-6.5,7.9
	c-5,3.2-10.2,4.8-15.5,4.8h-1.5c-5.8-0.3-9.7-0.9-11.6-1.7c-0.1,0.6-0.1,1.2-0.1,1.7c0,1.7,0.6,2.9,1.8,3.6s4.9,1.1,11.1,1.1
	c6.2,0,13-0.8,20.5-2.3l-2.9,16.4c-8.1,2.7-16.9,4-26.2,4c-3.2,0-6.5-0.2-9.9-0.5c-7.6-0.6-12.8-4.4-15.6-11.2
	c-1.6-3.9-2.4-8.2-2.4-13.1c0-4.8,0.5-9.8,1.5-15c1.9-10.2,5.1-17.3,9.4-21.1C138.6,103.7,146.4,101.8,157.9,101.7z M148.9,128.9
	c1.3,0.4,2.6,0.6,3.9,0.6c1.3,0,2.4-0.1,3.3-0.2c0.8-0.2,1.7-0.6,2.6-1.5c1.3-1.1,1.9-2.8,1.9-5c0-2.5-1.4-3.7-4.1-3.7
	c-2.6,0-4.4,0.8-5.4,2.5C150.2,123.2,149.4,125.7,148.9,128.9z"/>
<path id="character01" fill="#282517" d="M18.7,78.6h24.7l5,58.5l20.7-58.5h24.7l-7.7,19.6l5.3,38.9l21.3-58.5h24.7l-35.7,88.5H74.1
	L69.9,138l-11.1,29.1H29.7L18.7,78.6z"/>
</svg>
