<?xml version="1.0" encoding="utf-8"?>
<!-- Generator: Adobe Illustrator 20.0.0, SVG Export Plug-In . SVG Version: 6.00 Build 0)  -->
<!DOCTYPE svg PUBLIC "-//W3C//DTD SVG 1.1//EN" "http://www.w3.org/Graphics/SVG/1.1/DTD/svg11.dtd">
<svg version="1.1" id="logo" xmlns="http://www.w3.org/2000/svg" xmlns:xlink="http://www.w3.org/1999/xlink" x="0px" y="0px"
	 viewBox="0 0 626.3 202" enable-background="new 0 0 626.3 202" xml:space="preserve">
<path id="yellow-square" fill="#FFCF00" d="M456.9,195.3L424.7,41.1c-0.7-3.2,1.4-6.4,4.6-7.1L583.6,1.9c3.2-0.7,6.4,1.4,7.1,4.6
	l32.1,154.2c0.7,3.2-1.4,6.4-4.6,7.1L463.9,200C460.7,200.6,457.5,198.6,456.9,195.3z"/>
<path id="character10" fill="#FFFFFF" d="M560.5,126c1.5,0,2.4-0.7,2.7-2.1c0.4-1.9-0.2-2.8-1.9-2.8h-11.5c-5.7,0-10.1-1.9-13.2-5.8
	c-2.3-2.8-3.4-6.4-3.4-10.6c0-1.4,0.1-2.8,0.4-4.4l1-5.6c1.7-10.6,8.2-16,19.6-16c15.1,0,24.6,0.3,28.5,1c3.8,0.7,6.2,1.8,7.2,3.3
	L587.6,97h-26.9c-1.2,0-2,0.2-2.3,0.5c-0.3,0.3-0.6,0.9-0.7,1.8c-0.2,0.9-0.2,1.5-0.1,1.8c0.1,0.3,0.3,0.5,0.6,0.5
	c0.5,0.2,1.1,0.2,1.8,0.2H572c6.3,0,10.6,1.9,13.1,5.8c1.8,2.9,2.7,6.2,2.7,9.8c0,1.4-0.1,2.8-0.4,4.2l-1.1,7.1
	c-1.6,10.3-7.8,15.5-18.6,15.5c-1,0-3.2,0-6.7,0s-6.5,0-9.1-0.1c-2.6,0-5.6-0.2-9.2-0.4c-6.4-0.4-10.5-1.7-12.2-4l2.2-13.8H560.5z"
	/>
<path id="character09" fill="#FFFFFF" d="M491.8,176.3l15.3-96.8h23.4l-10.3,64.7c-0.6,4.4-1.3,8.1-1.9,11.1
	c-0.6,3-1.7,6.5-3.2,10.6c-1.5,4.1-3.3,7.6-5.5,10.5H491.8z M513.9,53.5H532c1.6,0,2.4,0.7,2.4,2.2c0,0.2,0,0.5-0.1,0.8L532,70.7
	c-0.2,1.9-1.3,2.8-3.1,2.8h-18.1c-1.9,0-2.8-0.9-2.5-2.8l2.3-14.1C510.7,54.5,511.9,53.5,513.9,53.5z"/>
<path id="character08" fill="#FFFFFF" d="M473.4,123.7H487c1.8,0,2.7,0.7,2.7,2.2c0,0.2,0,0.5-0.1,0.8l-2.3,14.1
	c-0.3,1.9-1.5,2.8-3.4,2.8h-13.7c-1.9,0-2.8-0.9-2.5-2.8l2.3-14.1C470.2,124.7,471.4,123.7,473.4,123.7z"/>
<path id="character07" fill="#282517" d="M434.5,143.7l10.2-64.2h23.4L458,143.7H434.5z M451.5,53.5h18.1c1.5,0,2.3,0.7,2.3,2.2
	c0,0.2,0,0.5-0.1,0.8l-2.2,14.1c-0.2,1.9-1.3,2.8-3.1,2.8h-18.1c-1.6,0-2.4-0.7-2.4-2.2c0-0.2,0-0.4,0-0.6l2.2-14.1
	C448.4,54.5,449.5,53.5,451.5,53.5z"/>
<path id="character06" fill="#282517" d="M399.1,78.5c6,0,11.2,1.2,15.3,3.6l5.3-33.4h23.4l-15,94.9h-20.1l-2.7-5.9
	c-3.1,2.3-5.8,3.9-8.2,5c-2.4,1.1-5.3,1.6-8.6,1.6c-7,0-11.9-3.5-14.6-10.4c-1.6-3.9-2.4-8.3-2.4-12.9c0-4.7,0.4-9.3,1.3-14
	c1.8-9.9,4.5-17.1,8.2-21.7C384.9,80.8,390.9,78.5,399.1,78.5z M399.9,98.2c-1.1,1.9-2.1,5.3-3,10.2c-0.8,4.9-1.3,8-1.3,9.3
	c0,1.3,0.1,2.6,0.2,3.9c0.1,1.3,0.5,2.2,1,2.8c0.6,0.6,1.5,0.9,2.8,0.9c4.1,0,6.8-0.9,8.2-2.7l4.1-25.6c-0.9-1.2-3.4-1.8-7.6-1.8
	C402.6,95.3,401.1,96.3,399.9,98.2z"/>
<path id="character05" fill="#282517" d="M337.7,143.7l10.2-64.2h23.4l-10.2,64.2H337.7z M354.7,53.5h18.1c1.5,0,2.3,0.7,2.3,2.2
	c0,0.2,0,0.5-0.1,0.8l-2.2,14.1c-0.2,1.9-1.3,2.8-3.1,2.8h-18.1c-1.6,0-2.4-0.7-2.4-2.2c0-0.2,0-0.4,0-0.6l2.2-14.1
	C351.6,54.5,352.7,53.5,354.7,53.5z"/>
<path id="character04" fill="#282517" d="M232.9,143.7l23.4-88.5H289l-0.4,49.7l15.2-49.7h33.2l-4.5,88.5h-23.1l2.4-48.2l-15.2,48.2
	h-27.4l-0.1-48.2l-12.6,48.2H232.9z"/>
<path id="character03" fill="#282517" d="M217.8,78.5c11.4,0,17,6.8,17,20.3c0,5.2-0.5,10.9-1.4,17.1c-0.9,6.2-2.1,11.2-3.6,14.9
	c-1.5,3.7-3.3,6.5-5.6,8.5c-2.3,1.9-4.7,3.3-7.3,4c-2.6,0.7-5.7,1.1-9.2,1.1c-3.6,0-6.4-0.5-8.5-1.6c-2.1-1-4.3-2.7-6.6-5.1
	l-4.5,5.9h-20.1l15-94.9h23.4l-5.2,33.4C206.4,79.7,211.9,78.5,217.8,78.5z M202.5,125.4c1.9,0,3.4-0.9,4.5-2.8
	c1.1-1.9,2-5.2,2.8-10.2c0.8-4.9,1.2-8,1.2-9.3c0-1.3,0-2.6-0.1-3.9c-0.1-1.3-0.4-2.3-1-3c-0.6-0.6-1.5-1-2.8-1
	c-4.1,0-6.8,0.6-8.1,1.8l-4.1,25.6C195.7,124.5,198.2,125.4,202.5,125.4z"/>
<path id="character02" fill="#282517" d="M141.8,78.3c17.9,0,26.8,6,26.8,18c0,5.2-0.9,9.5-2.6,13.2c-1.7,3.6-3.9,6.2-6.5,7.9
	c-5,3.2-10.2,4.8-15.5,4.8h-1.5c-5.8-0.3-9.7-0.9-11.6-1.7c-0.1,0.6-0.1,1.2-0.1,1.7c0,1.7,0.6,2.9,1.8,3.6s4.9,1.1,11.1,1.1
	c6.2,0,13-0.8,20.5-2.3l-2.9,16.4c-8.1,2.7-16.9,4-26.2,4c-3.2,0-6.5-0.2-9.9-0.5c-7.6-0.6-12.8-4.4-15.6-11.2
	c-1.6-3.9-2.4-8.2-2.4-13.1c0-4.8,0.5-9.8,1.5-15c1.9-10.2,5.1-17.3,9.4-21.1C122.5,80.3,130.4,78.4,141.8,78.3z M132.9,105.5
	c1.3,0.4,2.6,0.6,3.9,0.6c1.3,0,2.4-0.1,3.3-0.2c0.8-0.2,1.7-0.6,2.6-1.5c1.3-1.1,1.9-2.8,1.9-5c0-2.5-1.4-3.7-4.1-3.7
	c-2.6,0-4.4,0.8-5.4,2.5C134.1,99.8,133.3,102.3,132.9,105.5z"/>
<path id="character01" fill="#282517" d="M2.6,55.2h24.7l5,58.5l20.7-58.5h24.7l-7.7,19.6l5.3,38.9l21.3-58.5H121l-35.7,88.5H58.1
	l-4.2-29.1l-11.1,29.1H13.6L2.6,55.2z"/>
</svg>
