<?xml version="1.0" encoding="utf-8"?>
<!-- Generator: Adobe Illustrator 25.2.3, SVG Export Plug-In . SVG Version: 6.00 Build 0)  -->
<svg version="1.1" id="Calque_1" xmlns="http://www.w3.org/2000/svg" xmlns:xlink="http://www.w3.org/1999/xlink" x="0px" y="0px"
	 viewBox="0 0 1000 300" style="enable-background:new 0 0 1000 300;" xml:space="preserve">
<style type="text/css">
	.st0{fill:#FFFFFF;}
	.st1{fill:#FFD000;}
	.st2{fill:#282618;}
</style>
<path class="st0" d="M983.2,300H16.8C7.5,300,0,292.5,0,283.2V16.8C0,7.5,7.5,0,16.8,0h966.3c9.3,0,16.8,7.5,16.8,16.8v266.3
	C1000,292.5,992.5,300,983.2,300z"/>
<g>
	<g>
		<path class="st1" d="M647.6,233.1L619.3,97.6c-0.7-3.2,1.4-6.4,4.6-7.1l135.5-28.2c3.2-0.7,6.4,1.4,7.1,4.6l28.2,135.5
			c0.7,3.2-1.4,6.4-4.6,7.1l-135.5,28.2C651.4,238.4,648.2,236.3,647.6,233.1z"/>
	</g>
	<g>
		<path class="st2" d="M205.1,115.1h22.2l4.5,52.7l18.6-52.7h22.2l-7,17.6l4.8,35.1l19.2-52.7h22.2l-32.1,79.7H255l-3.8-26.2
			l-10,26.2H215L205.1,115.1z"/>
		<path class="st2" d="M335.4,115.1c13.7,0,24.8,0.6,33.1,1.7l-2.8,17.8h-26.9c-3.3,0-5.4,1.3-6.1,3.8c-0.1,0.5-0.3,1.3-0.4,2.3
			l-0.6,4.4l26.8,1.2l-2.8,17.5l-27.1,1l-0.9,5.2c-0.4,2.8,0.1,4.5,1.5,5c1.1,0.4,2.5,0.6,4.4,0.6h25.8l-2.8,17.6
			c-7.5,0.9-16.5,1.5-27.1,1.7l-5.5,0.1c-0.3,0-1,0-2.2,0c-1.2,0-2.7-0.2-4.7-0.6c-7.9-1.7-11.9-6.5-11.9-14.4
			c0-1.3,0.1-2.7,0.3-4.1l6.9-43.4c1.2-7.4,4.2-12.3,9-14.6C325.1,116,329.8,115.1,335.4,115.1z"/>
		<path class="st2" d="M409.9,115.1c8.1,0,13.9,2.2,17.2,6.5c2.5,3.3,3.7,7.3,3.7,12.1c0,6.2-1.7,11.2-5.1,15
			c-2.6,2.8-5.8,4.4-9.6,4.7c3.9,0.6,6.9,2.8,8.9,6.5c1.5,2.8,2.3,5.9,2.3,9.6c0,3.9-0.6,7.6-1.7,11.1c-1.2,3.5-2.4,6-3.8,7.6
			c-1.4,1.6-2.7,2.8-4.1,3.7c-1.3,0.9-3.2,1.6-5.6,2c-3.7,0.6-8.5,0.9-14.3,0.9h-34.1l12.6-79.7L409.9,115.1L409.9,115.1z
			 M399.5,176.9c2,0,3.4-0.6,4.4-2c1.6-2,2.4-4.8,2.4-8.3s-1.4-5.2-4.4-5.2h-11.9l-2.4,15.5L399.5,176.9L399.5,176.9z M403.6,144.7
			c1.6,0,2.9-0.5,3.9-1.5c1.4-1.4,2.1-3.4,2.1-5.9c0-2.9-1.4-4.4-4.1-4.4h-10.8l-1.9,11.8C392.8,144.7,403.6,144.7,403.6,144.7z"/>
		<path class="st2" d="M427.6,194.8l21.1-79.7h29.4l-0.3,44.8l13.7-44.8h29.9l-4,79.7h-20.8l2.2-43.4l-13.7,43.4h-24.7l-0.1-43.4
			L449,194.8H427.6z"/>
		<path class="st2" d="M521.6,194.8l12.6-79.7h21.1l-12.6,79.7H521.6z"/>
		<path class="st2" d="M599.3,115.1c15.1,0,22.7,9.6,22.7,28.8c0,4.4-0.5,9.8-1.4,16.3c-0.9,6.5-2.3,12.1-4,16.9s-4,8.5-6.8,11.1
			c-2.8,2.6-5.8,4.3-9,5.3c-3.2,0.9-7.3,1.4-12.1,1.4h-36.3l12.6-79.7H599.3z M587.6,176.9c3.4,0,6-1.6,7.7-4.9s3.2-8.9,4.5-16.8
			c0.9-4.6,1.3-8,1.3-10c0-5.8-0.8-9.4-2.5-10.9c-1.1-0.9-2.8-1.3-5.1-1.3h-10.2l-7,44H587.6z"/>
		<path class="st2" d="M622.6,194.8l12.6-79.7h21.1l-12.6,79.7H622.6z"/>
	</g>
	<g>
		<path class="st0" d="M659.9,176.8h12.3c1.6,0,2.4,0.6,2.4,2c0,0.2,0,0.5-0.1,0.8l-2.1,12.7c-0.3,1.7-1.3,2.5-3,2.5h-12.3
			c-1.7,0-2.5-0.8-2.3-2.5l2.1-12.7C657.1,177.7,658.1,176.8,659.9,176.8z"/>
		<path class="st0" d="M676.4,224.2l13.8-87.2h21.1l-9.2,58.3c-0.6,4-1.2,7.3-1.7,10s-1.5,5.9-2.9,9.5c-1.3,3.7-3,6.8-5,9.4
			L676.4,224.2L676.4,224.2z M696.4,113.6h16.3c1.5,0,2.2,0.7,2.2,2c0,0.2,0,0.5-0.1,0.8l-2.1,12.7c-0.2,1.7-1.2,2.5-2.8,2.5h-16.3
			c-1.7,0-2.5-0.8-2.3-2.5l2.1-12.7C693.5,114.5,694.6,113.6,696.4,113.6z"/>
		<path class="st0" d="M738.4,178.9c1.4,0,2.2-0.6,2.4-1.9c0.4-1.7-0.2-2.5-1.7-2.5h-10.4c-5.2,0-9.1-1.7-11.9-5.2
			c-2-2.5-3-5.7-3-9.6c0-1.2,0.1-2.5,0.3-3.9l0.9-5c1.5-9.6,7.4-14.4,17.6-14.4c13.7,0,22.2,0.3,25.6,0.9c3.5,0.6,5.6,1.6,6.5,3
			l-2,12.4h-24.3c-1.1,0-1.8,0.2-2.1,0.4s-0.5,0.8-0.7,1.6c-0.2,0.8-0.2,1.3-0.1,1.6s0.2,0.4,0.5,0.5c0.4,0.1,1,0.2,1.6,0.2h10.9
			c5.7,0,9.6,1.7,11.8,5.2c1.6,2.6,2.4,5.6,2.4,8.8c0,1.2-0.1,2.5-0.3,3.8l-1,6.4c-1.5,9.3-7,13.9-16.8,13.9c-0.9,0-2.9,0-6,0
			s-5.9,0-8.2-0.1c-2.3,0-5.1-0.2-8.3-0.4c-5.8-0.4-9.5-1.6-11-3.6l2-12.4L738.4,178.9L738.4,178.9z"/>
	</g>
</g>
</svg>
